<svg xmlns="http://www.w3.org/2000/svg" viewBox="0 0 500 500"><g id="freepik--Shadow--inject-1"><ellipse id="freepik--path--inject-1" cx="250" cy="416.24" rx="193.89" ry="11.32" style="fill:#f5f5f5"></ellipse></g><g id="freepik--Post--inject-1"><rect x="153.44" y="109.26" width="8.22" height="1" style="fill:#6833E4"></rect><rect x="118.11" y="109.26" width="28.22" height="1" style="fill:#6833E4"></rect><path d="M112.58,266.67h201.3a7.47,7.47,0,0,0,7.54-8.28L309.18,121a9.27,9.27,0,0,0-9-8.28H98.87A7.47,7.47,0,0,0,91.33,121l12.24,137.35A9.25,9.25,0,0,0,112.58,266.67Z" style="fill:#6833E4"></path><path d="M113.23,266.67H314.52a7.46,7.46,0,0,0,7.54-8.28L309.83,121a9.28,9.28,0,0,0-9-8.28H99.51A7.48,7.48,0,0,0,92,121l12.24,137.35A9.27,9.27,0,0,0,113.23,266.67Z" style="fill:#6833E4"></path><path d="M113.23,266.67H314.52a7.46,7.46,0,0,0,7.54-8.28L309.83,121a9.28,9.28,0,0,0-9-8.28H99.51A7.48,7.48,0,0,0,92,121l12.24,137.35A9.27,9.27,0,0,0,113.23,266.67Z" style="opacity:0.2"></path><path d="M301.18,116.9H99.88c-.22,0-.45,0-.67,0-5.14.42-3.95,8.25,1.24,8.25H302.09c5.19,0,5-7.83-.23-8.25C301.63,116.91,301.41,116.9,301.18,116.9Z" style="fill:#6833E4"></path><path d="M103.47,123.44a2.64,2.64,0,0,1-2.57-2.35,2.28,2.28,0,0,1,.57-1.73,2.22,2.22,0,0,1,1.66-.72,2.62,2.62,0,0,1,2.56,2.36,2.2,2.2,0,0,1-2.22,2.44Zm-.34-3.8a1.24,1.24,0,0,0-.92.39,1.28,1.28,0,0,0-.31,1,1.61,1.61,0,0,0,1.57,1.44,1.24,1.24,0,0,0,.92-.39,1.27,1.27,0,0,0,.31-1h0A1.62,1.62,0,0,0,103.13,119.64Z" style="fill:#fafafa"></path><path d="M109.92,123.44a2.63,2.63,0,0,1-2.56-2.35,2.22,2.22,0,0,1,2.23-2.45,2.64,2.64,0,0,1,2.56,2.36h0a2.18,2.18,0,0,1-.57,1.72A2.22,2.22,0,0,1,109.92,123.44Zm-.33-3.8a1.22,1.22,0,0,0-.92.39,1.25,1.25,0,0,0-.32,1,1.62,1.62,0,0,0,1.57,1.44,1.22,1.22,0,0,0,.92-.39,1.2,1.2,0,0,0,.31-1h0A1.61,1.61,0,0,0,109.59,119.64Z" style="fill:#fafafa"></path><path d="M116.38,123.44a2.64,2.64,0,0,1-2.57-2.35,2.28,2.28,0,0,1,.57-1.73,2.22,2.22,0,0,1,1.66-.72,2.64,2.64,0,0,1,2.57,2.36h0a2.26,2.26,0,0,1-.57,1.72A2.22,2.22,0,0,1,116.38,123.44Zm-.34-3.8a1.24,1.24,0,0,0-.92.39,1.28,1.28,0,0,0-.31,1,1.61,1.61,0,0,0,1.57,1.44,1.24,1.24,0,0,0,.92-.39,1.27,1.27,0,0,0,.31-1h0A1.62,1.62,0,0,0,116,119.64Z" style="fill:#fafafa"></path><path d="M116.36,253H309a2.71,2.71,0,0,0,2.74-3L301.62,137a3.35,3.35,0,0,0-3.27-3H105.76a2.71,2.71,0,0,0-2.74,3l10.07,113A3.35,3.35,0,0,0,116.36,253Z" style="fill:#fff"></path><path d="M183.25,342.8c2.68,8.19-1,14.83-9.16,14.83H310.37c8.2,0,11.84-6.64,9.16-14.83Z" style="fill:#263238"></path><path d="M124.89,142.35C154.1,209.17,131.51,276,153.58,342.8h0c2.69,8.19,12.33,14.83,20.51,14.83s11.84-6.64,9.16-14.83H304.7c-22.08-66.82.51-133.63-28.7-200.45Z" style="fill:#6833E4"></path><path d="M124.89,142.35C154.1,209.17,131.51,276,153.58,342.8h0c2.69,8.19,12.33,14.83,20.51,14.83s11.84-6.64,9.16-14.83H304.7c-22.08-66.82.51-133.63-28.7-200.45Z" style="fill:#fff;opacity:0.8"></path><path d="M189.33,193H152.58a199.61,199.61,0,0,0-8.41-36.75h36.75A199.61,199.61,0,0,1,189.33,193Z" style="fill:#6833E4"></path><path d="M288.32,332.58h-82a232.52,232.52,0,0,1-6.67-40.12h82A232.52,232.52,0,0,0,288.32,332.58Z" style="fill:#6833E4;opacity:0.6000000000000001"></path><g style="opacity:0.8"><path d="M269.35,160.35h-82q-.63-2-1.32-4.08h82Q268.72,158.31,269.35,160.35Z" style="fill:#6833E4"></path><path d="M272.29,171h-82q-.51-2-1-4.08h82Q271.78,168.93,272.29,171Z" style="fill:#6833E4"></path><path d="M256.14,181.58H192.59c-.26-1.36-.53-2.72-.82-4.08h63.56Q255.75,179.54,256.14,181.58Z" style="fill:#6833E4"></path></g><g style="opacity:0.2"><path d="M277.93,206.26h-82c-.08-.89-.16-1.79-.25-2.69h82C277.77,204.47,277.85,205.37,277.93,206.26Z" style="fill:#6833E4"></path><path d="M278.49,213.26h-82c-.06-.9-.13-1.8-.2-2.69h82C278.36,211.46,278.43,212.36,278.49,213.26Z" style="fill:#6833E4"></path><path d="M256.14,220.25H196.91c0-.9-.09-1.79-.15-2.69H256Z" style="fill:#6833E4"></path><path d="M279.23,227.24h-82c0-.89-.07-1.79-.11-2.69h82C279.16,225.45,279.2,226.35,279.23,227.24Z" style="fill:#6833E4"></path><path d="M279.47,234.24h-82c0-.9-.05-1.8-.08-2.69h82C279.42,232.44,279.45,233.34,279.47,234.24Z" style="fill:#6833E4"></path><path d="M216.38,241.23H197.66c0-.9,0-1.79-.07-2.69h18.72C216.34,239.44,216.36,240.34,216.38,241.23Z" style="fill:#6833E4"></path><path d="M279.81,248.23h-82c0-.9,0-1.8-.05-2.69h82C279.78,246.43,279.79,247.33,279.81,248.23Z" style="fill:#6833E4"></path><path d="M280,255.22H198l-.06-2.69h82Z" style="fill:#6833E4"></path><path d="M280.13,262.21h-82c0-.89,0-1.79-.07-2.69h82C280.08,260.42,280.1,261.32,280.13,262.21Z" style="fill:#6833E4"></path><path d="M280.34,269.21h-82l-.09-2.69h82Z" style="fill:#6833E4"></path><path d="M280.61,276.2h-82c0-.89-.08-1.79-.11-2.69h82C280.53,274.41,280.57,275.31,280.61,276.2Z" style="fill:#6833E4"></path><path d="M233.59,283.2H199l-.15-2.69h34.61Z" style="fill:#6833E4"></path></g></g><g id="freepik--Character--inject-1"><path d="M368.31,162.92c.9,1.09,1.66,2.07,2.43,3.13s1.52,2.09,2.25,3.16c1.47,2.13,2.86,4.3,4.17,6.55s2.57,4.54,3.68,6.94a61,61,0,0,1,3,7.47l.32,1,.08.24.12.42a6.71,6.71,0,0,1,.21.92,11.22,11.22,0,0,1,.07,3.25,17.64,17.64,0,0,1-1.39,4.84A37.59,37.59,0,0,1,379,208a73.64,73.64,0,0,1-10.61,11.39l-4.06-3.73a136.24,136.24,0,0,0,7.51-12.2,34.33,34.33,0,0,0,2.6-6,8.14,8.14,0,0,0,.41-2.36c0-.27,0-.46-.08-.46s0,0,0,0,0,.06,0,0l-.08-.19-.33-.77a86.38,86.38,0,0,0-6.62-12.18c-1.26-2-2.6-4-4-5.91s-2.81-3.93-4.14-5.71Z" style="fill:#ff8b7b"></path><path d="M366.85,214.41l-6.7,1.94,5.34,6.25s4.51-2.14,4.05-5.67Z" style="fill:#ff8b7b"></path><polygon points="355.35 221.72 361.42 226.56 365.49 222.6 360.15 216.35 355.35 221.72" style="fill:#ff8b7b"></polygon><path d="M331.33,130.69c0,.6-.31,1.08-.7,1.08s-.7-.48-.7-1.08.31-1.07.7-1.07S331.33,130.1,331.33,130.69Z" style="fill:#263238"></path><path d="M331.07,131.77a21.34,21.34,0,0,1-2.83,5.06,3.43,3.43,0,0,0,2.83.54Z" style="fill:#a02724"></path><path d="M333.43,127.41a.31.31,0,0,1-.2-.07,2.82,2.82,0,0,0-2.48-.45.35.35,0,0,1-.45-.2.36.36,0,0,1,.2-.45,3.45,3.45,0,0,1,3.13.54.34.34,0,0,1,.08.49A.35.35,0,0,1,333.43,127.41Z" style="fill:#263238"></path><path d="M350.45,137.52c-1.05,5.38-2.1,15.23,1.66,18.81,0,0-1.47,5.45-11.46,5.45-11,0-5.24-5.45-5.24-5.45,6-1.43,5.83-5.87,4.79-10.05Z" style="fill:#ff8b7b"></path><path d="M353.55,158.2c.79-1.72,1.65-3.7-.14-4.32-2-.68-12.77-1.37-16.49-.09a3.85,3.85,0,0,0-2.67,4.78Z" style="fill:#6833E4"></path><path d="M388.26,395a2.33,2.33,0,0,1-1.66.77c-.19,0-.43-.18-.52-.63a.79.79,0,0,1,.15-.66c.65-.89,3.1-1.14,3.2-1.15a.16.16,0,0,1,.17.08.17.17,0,0,1,0,.19A8.94,8.94,0,0,1,388.26,395Zm-1.6-.47-.15.15a.47.47,0,0,0-.09.39c.06.32.21.35.26.36.5.11,1.65-.85,2.37-1.7A5.74,5.74,0,0,0,386.66,394.55Z" style="fill:#6833E4"></path><path d="M389.56,393.65l-.07,0c-.85.18-3-.1-3.42-.82a.57.57,0,0,1,.12-.71,1,1,0,0,1,.71-.31c1.11,0,2.61,1.48,2.67,1.55a.16.16,0,0,1,.05.17A.16.16,0,0,1,389.56,393.65Zm-3.05-1.31-.06.06c-.16.16-.1.26-.08.3.24.42,1.74.75,2.69.69a4.25,4.25,0,0,0-2.15-1.19A.61.61,0,0,0,386.51,392.34Z" style="fill:#6833E4"></path><path d="M333.18,409.11c-.94,0-1.85-.13-2.16-.55a.66.66,0,0,1,0-.76.92.92,0,0,1,.56-.41c1.22-.33,3.79,1.13,3.89,1.2a.16.16,0,0,1,.09.18.18.18,0,0,1-.14.14A13.29,13.29,0,0,1,333.18,409.11ZM332,407.69a1.15,1.15,0,0,0-.33,0,.51.51,0,0,0-.34.24c-.13.22-.08.33,0,.39.34.47,2.2.48,3.57.29A7.87,7.87,0,0,0,332,407.69Z" style="fill:#6833E4"></path><path d="M335.4,408.91h-.07c-.89-.4-2.65-2-2.51-2.82,0-.2.17-.44.65-.49a1.3,1.3,0,0,1,1,.3c.94.77,1.13,2.75,1.14,2.83a.17.17,0,0,1-.07.16A.19.19,0,0,1,335.4,408.91Zm-1.79-3h-.11c-.31,0-.33.15-.34.19-.08.5,1.11,1.75,2,2.29a4.08,4.08,0,0,0-1-2.26A.94.94,0,0,0,333.61,405.93Z" style="fill:#6833E4"></path><polygon points="343.48 408.74 336.13 408.74 335.4 391.73 342.74 391.73 343.48 408.74" style="fill:#ff8b7b"></polygon><polygon points="396.98 391.51 389.87 393.36 382 377.84 389.11 375.98 396.98 391.51" style="fill:#ff8b7b"></polygon><path d="M389.32,392.52l6.29-5.34a.62.62,0,0,1,.8,0l5.33,4a1.07,1.07,0,0,1,0,1.69c-2.23,1.82-3.41,2.6-6.17,4.95-1.71,1.44-6.84,6.4-9.19,8.4s-4.63-.07-3.85-1.1c3.52-4.6,5.81-9.09,6.14-11.51A1.76,1.76,0,0,1,389.32,392.52Z" style="fill:#263238"></path><path d="M336.18,407.89h8a.65.65,0,0,1,.63.5l1.45,6.53a1.07,1.07,0,0,1-1.06,1.3c-2.89,0-7.08-.21-10.71-.21-4.26,0-6.11.23-11.1.23-3,0-3.85-3.05-2.59-3.33,5.74-1.25,8.62-1.39,13.59-4.45A3.41,3.41,0,0,1,336.18,407.89Z" style="fill:#263238"></path><path d="M325.93,172.65c-2.44,4.32-5,8.41-7.74,12.49s-5.64,8-8.82,11.89c-.39.49-.81,1-1.22,1.44l-.61.72-.31.36-.52.54a15,15,0,0,1-4.16,3,33.33,33.33,0,0,1-7.81,2.64A65.24,65.24,0,0,1,279.67,207l-.54-5.49a129.33,129.33,0,0,0,13.15-4.14,30.53,30.53,0,0,0,5.52-2.72,6.58,6.58,0,0,0,1.55-1.38l.85-1.16c.33-.46.67-.91,1-1.39,2.65-3.76,5.2-7.7,7.69-11.68s5-8,7.39-12Z" style="fill:#ff8b7b"></path><path d="M365.87,158c6.89,1.58,14.78,20.35,14.78,20.35l-13.83,9.48a117.16,117.16,0,0,1-9.13-15.53C353.61,163.7,358.83,156.38,365.87,158Z" style="fill:#263238"></path><path d="M360.94,170l6.54,17.41-.65.45s-2.83-4-5.89-9.33Z" style="opacity:0.30000000000000004"></path><path d="M324.72,158.37s-7.82,8.83-.44,63.5h39.29c.27-6-3.52-35.46,2.3-63.88a102.56,102.56,0,0,0-13.15-1.66,145.27,145.27,0,0,0-16.7,0A73.5,73.5,0,0,0,324.72,158.37Z" style="fill:#263238"></path><path d="M329.08,174.18A34.86,34.86,0,0,1,321.32,191c-.16-3.52-.22-6.68-.21-9.51Z" style="opacity:0.30000000000000004"></path><path d="M332.47,164.33c1,6.95-12.74,24.72-12.74,24.72L306,179.57s3.81-9.79,10.25-16.21C323.55,156,331.41,156.76,332.47,164.33Z" style="fill:#263238"></path><path d="M279.57,201.49l-7.7-.93.21,9.38s6.06.52,9.36-3.7Z" style="fill:#ff8b7b"></path><polygon points="264.19 202.85 267.19 210.44 272.08 209.94 271.87 200.56 264.19 202.85" style="fill:#ff8b7b"></polygon><polygon points="335.4 391.73 335.81 401.29 343.16 401.29 342.75 391.73 335.4 391.73" style="opacity:0.2"></polygon><polygon points="389.11 375.99 382 377.84 386.36 386.44 393.17 383.99 389.11 375.99" style="opacity:0.2"></polygon><path d="M351.09,129.44c-.44,7.27-.33,11.56-4,15.29-5.53,5.62-14.51,2.29-16.25-5-1.56-6.54-.57-17.34,6.56-20.23A9.94,9.94,0,0,1,351.09,129.44Z" style="fill:#ff8b7b"></path><path d="M338,132.83c-3.85-.77-2.45-5.39-1.5-6.75a1.79,1.79,0,0,1-.73-3c-1.61,0-5.68-.28-5.45-5s3.23-4.23,4.34-1.5a6.5,6.5,0,0,1,7.89-4.39c4.17,1,.5,3.16.5,3.16s9.1-1.83,7.83,2.84c3.94.22,9.67,3.86,6.78,7,1.72,3.38,1.45,5.69-.72,6.59-.75,4.06-5.06,11.84-8.34,11.84C345.89,143.61,338.18,139.94,338,132.83Z" style="fill:#263238"></path><path d="M341.23,131.42a8.27,8.27,0,0,1-2.57,4.62c-1.78,1.58-3.33.31-3.38-1.85,0-1.95.82-5.13,2.87-5.89S341.59,129.26,341.23,131.42Z" style="fill:#ff8b7b"></path><path d="M338.22,221.87S346.56,278,351.13,299c5,23,30.52,84.66,30.52,84.66l12.8-4.12S376,323.94,373.17,301.13c-3.1-24.75-9.6-79.26-9.6-79.26Z" style="fill:#6833E4"></path><path d="M378.93,381c-.05,0,2.94,4.48,2.94,4.48l14.38-4.74-1.71-4.29Z" style="fill:#263238"></path><path d="M343.49,241.87c9.64,1.89,8.62,37.84,7.46,56.33-2.78-13.07-6.85-38.22-9.63-56.07A3.29,3.29,0,0,1,343.49,241.87Z" style="opacity:0.30000000000000004"></path><path d="M324.28,221.87s-3.48,54.93-2.68,77.33c.83,23.3,11.44,99.6,11.44,99.6h12.44s-2-74.94-1.46-97.82c.61-25,6.09-79.11,6.09-79.11Z" style="fill:#6833E4"></path><path d="M330.64,393.84c-.05,0,.71,5.17.71,5.17h15.13l.41-4.61Z" style="fill:#263238"></path></g></svg>