<svg width="1597" height="967" viewBox="0 0 1597 967" fill="none" xmlns="http://www.w3.org/2000/svg">
<mask id="mask0_1573_1647" style="mask-type:luminance" maskUnits="userSpaceOnUse" x="0" y="0" width="1597" height="967">
<path d="M1597 0H0V967H1597V0Z" fill="white"/>
</mask>
<g mask="url(#mask0_1573_1647)">
<path d="M32 28L28 32L32 28Z" stroke="#6833E4" stroke-opacity="0.1"/>
<path d="M29 90C29 90.2652 29.1054 90.5196 29.2929 90.7071C29.4804 90.8946 29.7348 91 30 91C30.2652 91 30.5196 90.8946 30.7071 90.7071C30.8946 90.5196 31 90.2652 31 90C31 89.7348 30.8946 89.4804 30.7071 89.2929C30.5196 89.1054 30.2652 89 30 89C29.7348 89 29.4804 89.1054 29.2929 89.2929C29.1054 89.4804 29 89.7348 29 90V90Z" stroke="#6833E4" stroke-opacity="0.1"/>
<path d="M36 144L24 156L36 144Z" stroke="#6833E4" stroke-opacity="0.1"/>
<path d="M25 210C25 211.326 25.5268 212.598 26.4645 213.536C27.4021 214.473 28.6739 215 30 215C31.3261 215 32.5979 214.473 33.5355 213.536C34.4732 212.598 35 211.326 35 210C35 208.674 34.4732 207.402 33.5355 206.464C32.5979 205.527 31.3261 205 30 205C28.6739 205 27.4021 205.527 26.4645 206.464C25.5268 207.402 25 208.674 25 210V210Z" stroke="#6833E4" stroke-opacity="0.1"/>
<path d="M32 268L28 272L32 268Z" stroke="#6833E4" stroke-opacity="0.1"/>
<path d="M32 328L28 332L32 328Z" stroke="#6833E4" stroke-opacity="0.1"/>
<path d="M60 360L0 420L60 360Z" stroke="#6833E4" stroke-opacity="0.1" stroke-width="3"/>
<path d="M60 420L0 480L60 420Z" stroke="#6833E4" stroke-opacity="0.1" stroke-width="3"/>
<path d="M36 504L24 516L36 504Z" stroke="#6833E4" stroke-opacity="0.1"/>
<path d="M27 570C27 570.796 27.3161 571.559 27.8787 572.121C28.4413 572.684 29.2044 573 30 573C30.7956 573 31.5587 572.684 32.1213 572.121C32.6839 571.559 33 570.796 33 570C33 569.204 32.6839 568.441 32.1213 567.879C31.5587 567.316 30.7956 567 30 567C29.2044 567 28.4413 567.316 27.8787 567.879C27.3161 568.441 27 569.204 27 570V570Z" stroke="#6833E4" stroke-opacity="0.1"/>
<path d="M36 624L24 636L36 624Z" stroke="#6833E4" stroke-opacity="0.1"/>
<path d="M25 690C25 691.326 25.5268 692.598 26.4645 693.536C27.4021 694.473 28.6739 695 30 695C31.3261 695 32.5979 694.473 33.5355 693.536C34.4732 692.598 35 691.326 35 690C35 688.674 34.4732 687.402 33.5355 686.464C32.5979 685.527 31.3261 685 30 685C28.6739 685 27.4021 685.527 26.4645 686.464C25.5268 687.402 25 688.674 25 690V690Z" stroke="#6833E4" stroke-opacity="0.1"/>
<path d="M96 24L84 36L96 24Z" stroke="#6833E4" stroke-opacity="0.1"/>
<path d="M85 90C85 91.3261 85.5268 92.5979 86.4645 93.5355C87.4021 94.4732 88.6739 95 90 95C91.3261 95 92.5979 94.4732 93.5355 93.5355C94.4732 92.5979 95 91.3261 95 90C95 88.6739 94.4732 87.4021 93.5355 86.4645C92.5979 85.5268 91.3261 85 90 85C88.6739 85 87.4021 85.5268 86.4645 86.4645C85.5268 87.4021 85 88.6739 85 90V90Z" stroke="#6833E4" stroke-opacity="0.1"/>
<path d="M92 148L88 152L92 148Z" stroke="#6833E4" stroke-opacity="0.1"/>
<path d="M96 204L84 216L96 204Z" stroke="#6833E4" stroke-opacity="0.1"/>
<path d="M92 268L88 272L92 268Z" stroke="#6833E4" stroke-opacity="0.1"/>
<path d="M85 330C85 331.326 85.5268 332.598 86.4645 333.536C87.4021 334.473 88.6739 335 90 335C91.3261 335 92.5979 334.473 93.5355 333.536C94.4732 332.598 95 331.326 95 330C95 328.674 94.4732 327.402 93.5355 326.464C92.5979 325.527 91.3261 325 90 325C88.6739 325 87.4021 325.527 86.4645 326.464C85.5268 327.402 85 328.674 85 330V330Z" stroke="#6833E4" stroke-opacity="0.1"/>
<path d="M85 390C85 391.326 85.5268 392.598 86.4645 393.536C87.4021 394.473 88.6739 395 90 395C91.3261 395 92.5979 394.473 93.5355 393.536C94.4732 392.598 95 391.326 95 390C95 388.674 94.4732 387.402 93.5355 386.464C92.5979 385.527 91.3261 385 90 385C88.6739 385 87.4021 385.527 86.4645 386.464C85.5268 387.402 85 388.674 85 390V390Z" stroke="#6833E4" stroke-opacity="0.1"/>
<path d="M96 444L84 456L96 444Z" stroke="#6833E4" stroke-opacity="0.1"/>
<path d="M87 510C87 510.796 87.3161 511.559 87.8787 512.121C88.4413 512.684 89.2044 513 90 513C90.7956 513 91.5587 512.684 92.1213 512.121C92.6839 511.559 93 510.796 93 510C93 509.204 92.6839 508.441 92.1213 507.879C91.5587 507.316 90.7956 507 90 507C89.2044 507 88.4413 507.316 87.8787 507.879C87.3161 508.441 87 509.204 87 510V510Z" stroke="#6833E4" stroke-opacity="0.1"/>
<path d="M96 564L84 576L96 564Z" stroke="#6833E4" stroke-opacity="0.1"/>
<path d="M96 624L84 636L96 624Z" stroke="#6833E4" stroke-opacity="0.1"/>
<path d="M120 660L60 720L120 660Z" stroke="#6833E4" stroke-opacity="0.1" stroke-width="3"/>
<path d="M156 24L144 36L156 24Z" stroke="#6833E4" stroke-opacity="0.1"/>
<path d="M145 90C145 91.3261 145.527 92.5979 146.464 93.5355C147.402 94.4732 148.674 95 150 95C151.326 95 152.598 94.4732 153.536 93.5355C154.473 92.5979 155 91.3261 155 90C155 88.6739 154.473 87.4021 153.536 86.4645C152.598 85.5268 151.326 85 150 85C148.674 85 147.402 85.5268 146.464 86.4645C145.527 87.4021 145 88.6739 145 90V90Z" stroke="#6833E4" stroke-opacity="0.1"/>
<path d="M152 148L148 152L152 148Z" stroke="#6833E4" stroke-opacity="0.1"/>
<path d="M145 210C145 211.326 145.527 212.598 146.464 213.536C147.402 214.473 148.674 215 150 215C151.326 215 152.598 214.473 153.536 213.536C154.473 212.598 155 211.326 155 210C155 208.674 154.473 207.402 153.536 206.464C152.598 205.527 151.326 205 150 205C148.674 205 147.402 205.527 146.464 206.464C145.527 207.402 145 208.674 145 210V210Z" stroke="#6833E4" stroke-opacity="0.1"/>
<path d="M145 270C145 271.326 145.527 272.598 146.464 273.536C147.402 274.473 148.674 275 150 275C151.326 275 152.598 274.473 153.536 273.536C154.473 272.598 155 271.326 155 270C155 268.674 154.473 267.402 153.536 266.464C152.598 265.527 151.326 265 150 265C148.674 265 147.402 265.527 146.464 266.464C145.527 267.402 145 268.674 145 270V270Z" stroke="#6833E4" stroke-opacity="0.1"/>
<path d="M152 328L148 332L152 328Z" stroke="#6833E4" stroke-opacity="0.1"/>
<path d="M145 390C145 391.326 145.527 392.598 146.464 393.536C147.402 394.473 148.674 395 150 395C151.326 395 152.598 394.473 153.536 393.536C154.473 392.598 155 391.326 155 390C155 388.674 154.473 387.402 153.536 386.464C152.598 385.527 151.326 385 150 385C148.674 385 147.402 385.527 146.464 386.464C145.527 387.402 145 388.674 145 390V390Z" stroke="#6833E4" stroke-opacity="0.1"/>
<path d="M156 444L144 456L156 444Z" stroke="#6833E4" stroke-opacity="0.1"/>
<path d="M145 510C145 511.326 145.527 512.598 146.464 513.536C147.402 514.473 148.674 515 150 515C151.326 515 152.598 514.473 153.536 513.536C154.473 512.598 155 511.326 155 510C155 508.674 154.473 507.402 153.536 506.464C152.598 505.527 151.326 505 150 505C148.674 505 147.402 505.527 146.464 506.464C145.527 507.402 145 508.674 145 510V510Z" stroke="#6833E4" stroke-opacity="0.1"/>
<path d="M156 564L144 576L156 564Z" stroke="#6833E4" stroke-opacity="0.1"/>
<path d="M152 628L148 632L152 628Z" stroke="#6833E4" stroke-opacity="0.1"/>
<path d="M149 690C149 690.265 149.105 690.52 149.293 690.707C149.48 690.895 149.735 691 150 691C150.265 691 150.52 690.895 150.707 690.707C150.895 690.52 151 690.265 151 690C151 689.735 150.895 689.48 150.707 689.293C150.52 689.105 150.265 689 150 689C149.735 689 149.48 689.105 149.293 689.293C149.105 689.48 149 689.735 149 690V690Z" stroke="#6833E4" stroke-opacity="0.1"/>
<path d="M216 24L204 36L216 24Z" stroke="#6833E4" stroke-opacity="0.1"/>
<path d="M205 90C205 91.3261 205.527 92.5979 206.464 93.5355C207.402 94.4732 208.674 95 210 95C211.326 95 212.598 94.4732 213.536 93.5355C214.473 92.5979 215 91.3261 215 90C215 88.6739 214.473 87.4021 213.536 86.4645C212.598 85.5268 211.326 85 210 85C208.674 85 207.402 85.5268 206.464 86.4645C205.527 87.4021 205 88.6739 205 90V90Z" stroke="#6833E4" stroke-opacity="0.1"/>
<path d="M216 144L204 156L216 144Z" stroke="#6833E4" stroke-opacity="0.1"/>
<path d="M216 204L204 216L216 204Z" stroke="#6833E4" stroke-opacity="0.1"/>
<path d="M209 270C209 270.265 209.105 270.52 209.293 270.707C209.48 270.895 209.735 271 210 271C210.265 271 210.52 270.895 210.707 270.707C210.895 270.52 211 270.265 211 270C211 269.735 210.895 269.48 210.707 269.293C210.52 269.105 210.265 269 210 269C209.735 269 209.48 269.105 209.293 269.293C209.105 269.48 209 269.735 209 270V270Z" stroke="#6833E4" stroke-opacity="0.1"/>
<path d="M216 324L204 336L216 324Z" stroke="#6833E4" stroke-opacity="0.1"/>
<path d="M207 390C207 390.796 207.316 391.559 207.879 392.121C208.441 392.684 209.204 393 210 393C210.796 393 211.559 392.684 212.121 392.121C212.684 391.559 213 390.796 213 390C213 389.204 212.684 388.441 212.121 387.879C211.559 387.316 210.796 387 210 387C209.204 387 208.441 387.316 207.879 387.879C207.316 388.441 207 389.204 207 390V390Z" stroke="#6833E4" stroke-opacity="0.1"/>
<path d="M209 450C209 450.265 209.105 450.52 209.293 450.707C209.48 450.895 209.735 451 210 451C210.265 451 210.52 450.895 210.707 450.707C210.895 450.52 211 450.265 211 450C211 449.735 210.895 449.48 210.707 449.293C210.52 449.105 210.265 449 210 449C209.735 449 209.48 449.105 209.293 449.293C209.105 449.48 209 449.735 209 450V450Z" stroke="#6833E4" stroke-opacity="0.1"/>
<path d="M205 510C205 511.326 205.527 512.598 206.464 513.536C207.402 514.473 208.674 515 210 515C211.326 515 212.598 514.473 213.536 513.536C214.473 512.598 215 511.326 215 510C215 508.674 214.473 507.402 213.536 506.464C212.598 505.527 211.326 505 210 505C208.674 505 207.402 505.527 206.464 506.464C205.527 507.402 205 508.674 205 510V510Z" stroke="#6833E4" stroke-opacity="0.1"/>
<path d="M205 570C205 571.326 205.527 572.598 206.464 573.536C207.402 574.473 208.674 575 210 575C211.326 575 212.598 574.473 213.536 573.536C214.473 572.598 215 571.326 215 570C215 568.674 214.473 567.402 213.536 566.464C212.598 565.527 211.326 565 210 565C208.674 565 207.402 565.527 206.464 566.464C205.527 567.402 205 568.674 205 570V570Z" stroke="#6833E4" stroke-opacity="0.1"/>
<path d="M207 630C207 630.796 207.316 631.559 207.879 632.121C208.441 632.684 209.204 633 210 633C210.796 633 211.559 632.684 212.121 632.121C212.684 631.559 213 630.796 213 630C213 629.204 212.684 628.441 212.121 627.879C211.559 627.316 210.796 627 210 627C209.204 627 208.441 627.316 207.879 627.879C207.316 628.441 207 629.204 207 630V630Z" stroke="#6833E4" stroke-opacity="0.1"/>
<path d="M205 690C205 691.326 205.527 692.598 206.464 693.536C207.402 694.473 208.674 695 210 695C211.326 695 212.598 694.473 213.536 693.536C214.473 692.598 215 691.326 215 690C215 688.674 214.473 687.402 213.536 686.464C212.598 685.527 211.326 685 210 685C208.674 685 207.402 685.527 206.464 686.464C205.527 687.402 205 688.674 205 690V690Z" stroke="#6833E4" stroke-opacity="0.1"/>
<path d="M265 30C265 31.3261 265.527 32.5979 266.464 33.5355C267.402 34.4732 268.674 35 270 35C271.326 35 272.598 34.4732 273.536 33.5355C274.473 32.5979 275 31.3261 275 30C275 28.6739 274.473 27.4021 273.536 26.4645C272.598 25.5268 271.326 25 270 25C268.674 25 267.402 25.5268 266.464 26.4645C265.527 27.4021 265 28.6739 265 30V30Z" stroke="#6833E4" stroke-opacity="0.1"/>
<path d="M265 90C265 91.3261 265.527 92.5979 266.464 93.5355C267.402 94.4732 268.674 95 270 95C271.326 95 272.598 94.4732 273.536 93.5355C274.473 92.5979 275 91.3261 275 90C275 88.6739 274.473 87.4021 273.536 86.4645C272.598 85.5268 271.326 85 270 85C268.674 85 267.402 85.5268 266.464 86.4645C265.527 87.4021 265 88.6739 265 90V90Z" stroke="#6833E4" stroke-opacity="0.1"/>
<path d="M276 144L264 156L276 144Z" stroke="#6833E4" stroke-opacity="0.1"/>
<path d="M267 210C267 210.796 267.316 211.559 267.879 212.121C268.441 212.684 269.204 213 270 213C270.796 213 271.559 212.684 272.121 212.121C272.684 211.559 273 210.796 273 210C273 209.204 272.684 208.441 272.121 207.879C271.559 207.316 270.796 207 270 207C269.204 207 268.441 207.316 267.879 207.879C267.316 208.441 267 209.204 267 210V210Z" stroke="#6833E4" stroke-opacity="0.1"/>
<path d="M276 264L264 276L276 264Z" stroke="#6833E4" stroke-opacity="0.1"/>
<path d="M269 330C269 330.265 269.105 330.52 269.293 330.707C269.48 330.895 269.735 331 270 331C270.265 331 270.52 330.895 270.707 330.707C270.895 330.52 271 330.265 271 330C271 329.735 270.895 329.48 270.707 329.293C270.52 329.105 270.265 329 270 329C269.735 329 269.48 329.105 269.293 329.293C269.105 329.48 269 329.735 269 330V330Z" stroke="#6833E4" stroke-opacity="0.1"/>
<path d="M265 390C265 391.326 265.527 392.598 266.464 393.536C267.402 394.473 268.674 395 270 395C271.326 395 272.598 394.473 273.536 393.536C274.473 392.598 275 391.326 275 390C275 388.674 274.473 387.402 273.536 386.464C272.598 385.527 271.326 385 270 385C268.674 385 267.402 385.527 266.464 386.464C265.527 387.402 265 388.674 265 390V390Z" stroke="#6833E4" stroke-opacity="0.1"/>
<path d="M272 448L268 452L272 448Z" stroke="#6833E4" stroke-opacity="0.1"/>
<path d="M272 508L268 512L272 508Z" stroke="#6833E4" stroke-opacity="0.1"/>
<path d="M272 568L268 572L272 568Z" stroke="#6833E4" stroke-opacity="0.1"/>
<path d="M265 630C265 631.326 265.527 632.598 266.464 633.536C267.402 634.473 268.674 635 270 635C271.326 635 272.598 634.473 273.536 633.536C274.473 632.598 275 631.326 275 630C275 628.674 274.473 627.402 273.536 626.464C272.598 625.527 271.326 625 270 625C268.674 625 267.402 625.527 266.464 626.464C265.527 627.402 265 628.674 265 630V630Z" stroke="#6833E4" stroke-opacity="0.1"/>
<path d="M269 690C269 690.265 269.105 690.52 269.293 690.707C269.48 690.895 269.735 691 270 691C270.265 691 270.52 690.895 270.707 690.707C270.895 690.52 271 690.265 271 690C271 689.735 270.895 689.48 270.707 689.293C270.52 689.105 270.265 689 270 689C269.735 689 269.48 689.105 269.293 689.293C269.105 689.48 269 689.735 269 690V690Z" stroke="#6833E4" stroke-opacity="0.1"/>
<path d="M336 24L324 36L336 24Z" stroke="#6833E4" stroke-opacity="0.1"/>
<path d="M327 90C327 90.7956 327.316 91.5587 327.879 92.1213C328.441 92.6839 329.204 93 330 93C330.796 93 331.559 92.6839 332.121 92.1213C332.684 91.5587 333 90.7956 333 90C333 89.2044 332.684 88.4413 332.121 87.8787C331.559 87.3161 330.796 87 330 87C329.204 87 328.441 87.3161 327.879 87.8787C327.316 88.4413 327 89.2044 327 90V90Z" stroke="#6833E4" stroke-opacity="0.1"/>
<path d="M325 150C325 151.326 325.527 152.598 326.464 153.536C327.402 154.473 328.674 155 330 155C331.326 155 332.598 154.473 333.536 153.536C334.473 152.598 335 151.326 335 150C335 148.674 334.473 147.402 333.536 146.464C332.598 145.527 331.326 145 330 145C328.674 145 327.402 145.527 326.464 146.464C325.527 147.402 325 148.674 325 150V150Z" stroke="#6833E4" stroke-opacity="0.1"/>
<path d="M325 210C325 211.326 325.527 212.598 326.464 213.536C327.402 214.473 328.674 215 330 215C331.326 215 332.598 214.473 333.536 213.536C334.473 212.598 335 211.326 335 210C335 208.674 334.473 207.402 333.536 206.464C332.598 205.527 331.326 205 330 205C328.674 205 327.402 205.527 326.464 206.464C325.527 207.402 325 208.674 325 210V210Z" stroke="#6833E4" stroke-opacity="0.1"/>
<path d="M336 264L324 276L336 264Z" stroke="#6833E4" stroke-opacity="0.1"/>
<path d="M329 330C329 330.265 329.105 330.52 329.293 330.707C329.48 330.895 329.735 331 330 331C330.265 331 330.52 330.895 330.707 330.707C330.895 330.52 331 330.265 331 330C331 329.735 330.895 329.48 330.707 329.293C330.52 329.105 330.265 329 330 329C329.735 329 329.48 329.105 329.293 329.293C329.105 329.48 329 329.735 329 330V330Z" stroke="#6833E4" stroke-opacity="0.1"/>
<path d="M336 384L324 396L336 384Z" stroke="#6833E4" stroke-opacity="0.1"/>
<path d="M332 448L328 452L332 448Z" stroke="#6833E4" stroke-opacity="0.1"/>
<path d="M336 504L324 516L336 504Z" stroke="#6833E4" stroke-opacity="0.1"/>
<path d="M332 568L328 572L332 568Z" stroke="#6833E4" stroke-opacity="0.1"/>
<path d="M327 630C327 630.796 327.316 631.559 327.879 632.121C328.441 632.684 329.204 633 330 633C330.796 633 331.559 632.684 332.121 632.121C332.684 631.559 333 630.796 333 630C333 629.204 332.684 628.441 332.121 627.879C331.559 627.316 330.796 627 330 627C329.204 627 328.441 627.316 327.879 627.879C327.316 628.441 327 629.204 327 630V630Z" stroke="#6833E4" stroke-opacity="0.1"/>
<path d="M336 684L324 696L336 684Z" stroke="#6833E4" stroke-opacity="0.1"/>
<path d="M392 28L388 32L392 28Z" stroke="#6833E4" stroke-opacity="0.1"/>
<path d="M420 60L360 120L420 60Z" stroke="#6833E4" stroke-opacity="0.1" stroke-width="3"/>
<path d="M387 150C387 150.796 387.316 151.559 387.879 152.121C388.441 152.684 389.204 153 390 153C390.796 153 391.559 152.684 392.121 152.121C392.684 151.559 393 150.796 393 150C393 149.204 392.684 148.441 392.121 147.879C391.559 147.316 390.796 147 390 147C389.204 147 388.441 147.316 387.879 147.879C387.316 148.441 387 149.204 387 150V150Z" stroke="#6833E4" stroke-opacity="0.1"/>
<path d="M392 208L388 212L392 208Z" stroke="#6833E4" stroke-opacity="0.1"/>
<path d="M396 264L384 276L396 264Z" stroke="#6833E4" stroke-opacity="0.1"/>
<path d="M387 330C387 330.796 387.316 331.559 387.879 332.121C388.441 332.684 389.204 333 390 333C390.796 333 391.559 332.684 392.121 332.121C392.684 331.559 393 330.796 393 330C393 329.204 392.684 328.441 392.121 327.879C391.559 327.316 390.796 327 390 327C389.204 327 388.441 327.316 387.879 327.879C387.316 328.441 387 329.204 387 330V330Z" stroke="#6833E4" stroke-opacity="0.1"/>
<path d="M392 388L388 392L392 388Z" stroke="#6833E4" stroke-opacity="0.1"/>
<path d="M387 450C387 450.796 387.316 451.559 387.879 452.121C388.441 452.684 389.204 453 390 453C390.796 453 391.559 452.684 392.121 452.121C392.684 451.559 393 450.796 393 450C393 449.204 392.684 448.441 392.121 447.879C391.559 447.316 390.796 447 390 447C389.204 447 388.441 447.316 387.879 447.879C387.316 448.441 387 449.204 387 450V450Z" stroke="#6833E4" stroke-opacity="0.1"/>
<path d="M385 510C385 511.326 385.527 512.598 386.464 513.536C387.402 514.473 388.674 515 390 515C391.326 515 392.598 514.473 393.536 513.536C394.473 512.598 395 511.326 395 510C395 508.674 394.473 507.402 393.536 506.464C392.598 505.527 391.326 505 390 505C388.674 505 387.402 505.527 386.464 506.464C385.527 507.402 385 508.674 385 510V510Z" stroke="#6833E4" stroke-opacity="0.1"/>
<path d="M389 570C389 570.265 389.105 570.52 389.293 570.707C389.48 570.895 389.735 571 390 571C390.265 571 390.52 570.895 390.707 570.707C390.895 570.52 391 570.265 391 570C391 569.735 390.895 569.48 390.707 569.293C390.52 569.105 390.265 569 390 569C389.735 569 389.48 569.105 389.293 569.293C389.105 569.48 389 569.735 389 570V570Z" stroke="#6833E4" stroke-opacity="0.1"/>
<path d="M396 624L384 636L396 624Z" stroke="#6833E4" stroke-opacity="0.1"/>
<path d="M392 688L388 692L392 688Z" stroke="#6833E4" stroke-opacity="0.1"/>
<path d="M456 24L444 36L456 24Z" stroke="#6833E4" stroke-opacity="0.1"/>
<path d="M449 90C449 90.2652 449.105 90.5196 449.293 90.7071C449.48 90.8946 449.735 91 450 91C450.265 91 450.52 90.8946 450.707 90.7071C450.895 90.5196 451 90.2652 451 90C451 89.7348 450.895 89.4804 450.707 89.2929C450.52 89.1054 450.265 89 450 89C449.735 89 449.48 89.1054 449.293 89.2929C449.105 89.4804 449 89.7348 449 90V90Z" stroke="#6833E4" stroke-opacity="0.1"/>
<path d="M447 150C447 150.796 447.316 151.559 447.879 152.121C448.441 152.684 449.204 153 450 153C450.796 153 451.559 152.684 452.121 152.121C452.684 151.559 453 150.796 453 150C453 149.204 452.684 148.441 452.121 147.879C451.559 147.316 450.796 147 450 147C449.204 147 448.441 147.316 447.879 147.879C447.316 148.441 447 149.204 447 150V150Z" stroke="#6833E4" stroke-opacity="0.1"/>
<path d="M449 210C449 210.265 449.105 210.52 449.293 210.707C449.48 210.895 449.735 211 450 211C450.265 211 450.52 210.895 450.707 210.707C450.895 210.52 451 210.265 451 210C451 209.735 450.895 209.48 450.707 209.293C450.52 209.105 450.265 209 450 209C449.735 209 449.48 209.105 449.293 209.293C449.105 209.48 449 209.735 449 210V210Z" stroke="#6833E4" stroke-opacity="0.1"/>
<path d="M456 264L444 276L456 264Z" stroke="#6833E4" stroke-opacity="0.1"/>
<path d="M456 324L444 336L456 324Z" stroke="#6833E4" stroke-opacity="0.1"/>
<path d="M445 390C445 391.326 445.527 392.598 446.464 393.536C447.402 394.473 448.674 395 450 395C451.326 395 452.598 394.473 453.536 393.536C454.473 392.598 455 391.326 455 390C455 388.674 454.473 387.402 453.536 386.464C452.598 385.527 451.326 385 450 385C448.674 385 447.402 385.527 446.464 386.464C445.527 387.402 445 388.674 445 390V390Z" stroke="#6833E4" stroke-opacity="0.1"/>
<path d="M445 450C445 451.326 445.527 452.598 446.464 453.536C447.402 454.473 448.674 455 450 455C451.326 455 452.598 454.473 453.536 453.536C454.473 452.598 455 451.326 455 450C455 448.674 454.473 447.402 453.536 446.464C452.598 445.527 451.326 445 450 445C448.674 445 447.402 445.527 446.464 446.464C445.527 447.402 445 448.674 445 450V450Z" stroke="#6833E4" stroke-opacity="0.1"/>
<path d="M445 510C445 511.326 445.527 512.598 446.464 513.536C447.402 514.473 448.674 515 450 515C451.326 515 452.598 514.473 453.536 513.536C454.473 512.598 455 511.326 455 510C455 508.674 454.473 507.402 453.536 506.464C452.598 505.527 451.326 505 450 505C448.674 505 447.402 505.527 446.464 506.464C445.527 507.402 445 508.674 445 510V510Z" stroke="#6833E4" stroke-opacity="0.1"/>
<path d="M449 570C449 570.265 449.105 570.52 449.293 570.707C449.48 570.895 449.735 571 450 571C450.265 571 450.52 570.895 450.707 570.707C450.895 570.52 451 570.265 451 570C451 569.735 450.895 569.48 450.707 569.293C450.52 569.105 450.265 569 450 569C449.735 569 449.48 569.105 449.293 569.293C449.105 569.48 449 569.735 449 570V570Z" stroke="#6833E4" stroke-opacity="0.1"/>
<path d="M452 628L448 632L452 628Z" stroke="#6833E4" stroke-opacity="0.1"/>
<path d="M456 684L444 696L456 684Z" stroke="#6833E4" stroke-opacity="0.1"/>
<path d="M505 30C505 31.3261 505.527 32.5979 506.464 33.5355C507.402 34.4732 508.674 35 510 35C511.326 35 512.598 34.4732 513.536 33.5355C514.473 32.5979 515 31.3261 515 30C515 28.6739 514.473 27.4021 513.536 26.4645C512.598 25.5268 511.326 25 510 25C508.674 25 507.402 25.5268 506.464 26.4645C505.527 27.4021 505 28.6739 505 30V30Z" stroke="#6833E4" stroke-opacity="0.1"/>
<path d="M507 90C507 90.7956 507.316 91.5587 507.879 92.1213C508.441 92.6839 509.204 93 510 93C510.796 93 511.559 92.6839 512.121 92.1213C512.684 91.5587 513 90.7956 513 90C513 89.2044 512.684 88.4413 512.121 87.8787C511.559 87.3161 510.796 87 510 87C509.204 87 508.441 87.3161 507.879 87.8787C507.316 88.4413 507 89.2044 507 90V90Z" stroke="#6833E4" stroke-opacity="0.1"/>
<path d="M505 150C505 151.326 505.527 152.598 506.464 153.536C507.402 154.473 508.674 155 510 155C511.326 155 512.598 154.473 513.536 153.536C514.473 152.598 515 151.326 515 150C515 148.674 514.473 147.402 513.536 146.464C512.598 145.527 511.326 145 510 145C508.674 145 507.402 145.527 506.464 146.464C505.527 147.402 505 148.674 505 150V150Z" stroke="#6833E4" stroke-opacity="0.1"/>
<path d="M512 208L508 212L512 208Z" stroke="#6833E4" stroke-opacity="0.1"/>
<path d="M505 270C505 271.326 505.527 272.598 506.464 273.536C507.402 274.473 508.674 275 510 275C511.326 275 512.598 274.473 513.536 273.536C514.473 272.598 515 271.326 515 270C515 268.674 514.473 267.402 513.536 266.464C512.598 265.527 511.326 265 510 265C508.674 265 507.402 265.527 506.464 266.464C505.527 267.402 505 268.674 505 270V270Z" stroke="#6833E4" stroke-opacity="0.1"/>
<path d="M505 330C505 331.326 505.527 332.598 506.464 333.536C507.402 334.473 508.674 335 510 335C511.326 335 512.598 334.473 513.536 333.536C514.473 332.598 515 331.326 515 330C515 328.674 514.473 327.402 513.536 326.464C512.598 325.527 511.326 325 510 325C508.674 325 507.402 325.527 506.464 326.464C505.527 327.402 505 328.674 505 330V330Z" stroke="#6833E4" stroke-opacity="0.1"/>
<path d="M509 390C509 390.265 509.105 390.52 509.293 390.707C509.48 390.895 509.735 391 510 391C510.265 391 510.52 390.895 510.707 390.707C510.895 390.52 511 390.265 511 390C511 389.735 510.895 389.48 510.707 389.293C510.52 389.105 510.265 389 510 389C509.735 389 509.48 389.105 509.293 389.293C509.105 389.48 509 389.735 509 390V390Z" stroke="#6833E4" stroke-opacity="0.1"/>
<path d="M512 448L508 452L512 448Z" stroke="#6833E4" stroke-opacity="0.1"/>
<path d="M505 510C505 511.326 505.527 512.598 506.464 513.536C507.402 514.473 508.674 515 510 515C511.326 515 512.598 514.473 513.536 513.536C514.473 512.598 515 511.326 515 510C515 508.674 514.473 507.402 513.536 506.464C512.598 505.527 511.326 505 510 505C508.674 505 507.402 505.527 506.464 506.464C505.527 507.402 505 508.674 505 510V510Z" stroke="#6833E4" stroke-opacity="0.1"/>
<path d="M505 570C505 571.326 505.527 572.598 506.464 573.536C507.402 574.473 508.674 575 510 575C511.326 575 512.598 574.473 513.536 573.536C514.473 572.598 515 571.326 515 570C515 568.674 514.473 567.402 513.536 566.464C512.598 565.527 511.326 565 510 565C508.674 565 507.402 565.527 506.464 566.464C505.527 567.402 505 568.674 505 570V570Z" stroke="#6833E4" stroke-opacity="0.1"/>
<path d="M516 624L504 636L516 624Z" stroke="#6833E4" stroke-opacity="0.1"/>
<path d="M507 690C507 690.796 507.316 691.559 507.879 692.121C508.441 692.684 509.204 693 510 693C510.796 693 511.559 692.684 512.121 692.121C512.684 691.559 513 690.796 513 690C513 689.204 512.684 688.441 512.121 687.879C511.559 687.316 510.796 687 510 687C509.204 687 508.441 687.316 507.879 687.879C507.316 688.441 507 689.204 507 690V690Z" stroke="#6833E4" stroke-opacity="0.1"/>
<path d="M565 30C565 31.3261 565.527 32.5979 566.464 33.5355C567.402 34.4732 568.674 35 570 35C571.326 35 572.598 34.4732 573.536 33.5355C574.473 32.5979 575 31.3261 575 30C575 28.6739 574.473 27.4021 573.536 26.4645C572.598 25.5268 571.326 25 570 25C568.674 25 567.402 25.5268 566.464 26.4645C565.527 27.4021 565 28.6739 565 30V30Z" stroke="#6833E4" stroke-opacity="0.1"/>
<path d="M565 90C565 91.3261 565.527 92.5979 566.464 93.5355C567.402 94.4732 568.674 95 570 95C571.326 95 572.598 94.4732 573.536 93.5355C574.473 92.5979 575 91.3261 575 90C575 88.6739 574.473 87.4021 573.536 86.4645C572.598 85.5268 571.326 85 570 85C568.674 85 567.402 85.5268 566.464 86.4645C565.527 87.4021 565 88.6739 565 90V90Z" stroke="#6833E4" stroke-opacity="0.1"/>
<path d="M576 144L564 156L576 144Z" stroke="#6833E4" stroke-opacity="0.1"/>
<path d="M565 210C565 211.326 565.527 212.598 566.464 213.536C567.402 214.473 568.674 215 570 215C571.326 215 572.598 214.473 573.536 213.536C574.473 212.598 575 211.326 575 210C575 208.674 574.473 207.402 573.536 206.464C572.598 205.527 571.326 205 570 205C568.674 205 567.402 205.527 566.464 206.464C565.527 207.402 565 208.674 565 210V210Z" stroke="#6833E4" stroke-opacity="0.1"/>
<path d="M572 268L568 272L572 268Z" stroke="#6833E4" stroke-opacity="0.1"/>
<path d="M565 330C565 331.326 565.527 332.598 566.464 333.536C567.402 334.473 568.674 335 570 335C571.326 335 572.598 334.473 573.536 333.536C574.473 332.598 575 331.326 575 330C575 328.674 574.473 327.402 573.536 326.464C572.598 325.527 571.326 325 570 325C568.674 325 567.402 325.527 566.464 326.464C565.527 327.402 565 328.674 565 330V330Z" stroke="#6833E4" stroke-opacity="0.1"/>
<path d="M565 390C565 391.326 565.527 392.598 566.464 393.536C567.402 394.473 568.674 395 570 395C571.326 395 572.598 394.473 573.536 393.536C574.473 392.598 575 391.326 575 390C575 388.674 574.473 387.402 573.536 386.464C572.598 385.527 571.326 385 570 385C568.674 385 567.402 385.527 566.464 386.464C565.527 387.402 565 388.674 565 390V390Z" stroke="#6833E4" stroke-opacity="0.1"/>
<path d="M565 450C565 451.326 565.527 452.598 566.464 453.536C567.402 454.473 568.674 455 570 455C571.326 455 572.598 454.473 573.536 453.536C574.473 452.598 575 451.326 575 450C575 448.674 574.473 447.402 573.536 446.464C572.598 445.527 571.326 445 570 445C568.674 445 567.402 445.527 566.464 446.464C565.527 447.402 565 448.674 565 450V450Z" stroke="#6833E4" stroke-opacity="0.1"/>
<path d="M565 510C565 511.326 565.527 512.598 566.464 513.536C567.402 514.473 568.674 515 570 515C571.326 515 572.598 514.473 573.536 513.536C574.473 512.598 575 511.326 575 510C575 508.674 574.473 507.402 573.536 506.464C572.598 505.527 571.326 505 570 505C568.674 505 567.402 505.527 566.464 506.464C565.527 507.402 565 508.674 565 510V510Z" stroke="#6833E4" stroke-opacity="0.1"/>
<path d="M572 568L568 572L572 568Z" stroke="#6833E4" stroke-opacity="0.1"/>
<path d="M572 628L568 632L572 628Z" stroke="#6833E4" stroke-opacity="0.1"/>
<path d="M572 688L568 692L572 688Z" stroke="#6833E4" stroke-opacity="0.1"/>
<path d="M636 24L624 36L636 24Z" stroke="#6833E4" stroke-opacity="0.1"/>
<path d="M636 84L624 96L636 84Z" stroke="#6833E4" stroke-opacity="0.1"/>
<path d="M625 150C625 151.326 625.527 152.598 626.464 153.536C627.402 154.473 628.674 155 630 155C631.326 155 632.598 154.473 633.536 153.536C634.473 152.598 635 151.326 635 150C635 148.674 634.473 147.402 633.536 146.464C632.598 145.527 631.326 145 630 145C628.674 145 627.402 145.527 626.464 146.464C625.527 147.402 625 148.674 625 150V150Z" stroke="#6833E4" stroke-opacity="0.1"/>
<path d="M636 204L624 216L636 204Z" stroke="#6833E4" stroke-opacity="0.1"/>
<path d="M629 270C629 270.265 629.105 270.52 629.293 270.707C629.48 270.895 629.735 271 630 271C630.265 271 630.52 270.895 630.707 270.707C630.895 270.52 631 270.265 631 270C631 269.735 630.895 269.48 630.707 269.293C630.52 269.105 630.265 269 630 269C629.735 269 629.48 269.105 629.293 269.293C629.105 269.48 629 269.735 629 270V270Z" stroke="#6833E4" stroke-opacity="0.1"/>
<path d="M627 330C627 330.796 627.316 331.559 627.879 332.121C628.441 332.684 629.204 333 630 333C630.796 333 631.559 332.684 632.121 332.121C632.684 331.559 633 330.796 633 330C633 329.204 632.684 328.441 632.121 327.879C631.559 327.316 630.796 327 630 327C629.204 327 628.441 327.316 627.879 327.879C627.316 328.441 627 329.204 627 330V330Z" stroke="#6833E4" stroke-opacity="0.1"/>
<path d="M632 388L628 392L632 388Z" stroke="#6833E4" stroke-opacity="0.1"/>
<path d="M636 444L624 456L636 444Z" stroke="#6833E4" stroke-opacity="0.1"/>
<path d="M625 510C625 511.326 625.527 512.598 626.464 513.536C627.402 514.473 628.674 515 630 515C631.326 515 632.598 514.473 633.536 513.536C634.473 512.598 635 511.326 635 510C635 508.674 634.473 507.402 633.536 506.464C632.598 505.527 631.326 505 630 505C628.674 505 627.402 505.527 626.464 506.464C625.527 507.402 625 508.674 625 510V510Z" stroke="#6833E4" stroke-opacity="0.1"/>
<path d="M636 564L624 576L636 564Z" stroke="#6833E4" stroke-opacity="0.1"/>
<path d="M632 628L628 632L632 628Z" stroke="#6833E4" stroke-opacity="0.1"/>
<path d="M625 690C625 691.326 625.527 692.598 626.464 693.536C627.402 694.473 628.674 695 630 695C631.326 695 632.598 694.473 633.536 693.536C634.473 692.598 635 691.326 635 690C635 688.674 634.473 687.402 633.536 686.464C632.598 685.527 631.326 685 630 685C628.674 685 627.402 685.527 626.464 686.464C625.527 687.402 625 688.674 625 690V690Z" stroke="#6833E4" stroke-opacity="0.1"/>
<path d="M685 30C685 31.3261 685.527 32.5979 686.464 33.5355C687.402 34.4732 688.674 35 690 35C691.326 35 692.598 34.4732 693.536 33.5355C694.473 32.5979 695 31.3261 695 30C695 28.6739 694.473 27.4021 693.536 26.4645C692.598 25.5268 691.326 25 690 25C688.674 25 687.402 25.5268 686.464 26.4645C685.527 27.4021 685 28.6739 685 30V30Z" stroke="#6833E4" stroke-opacity="0.1"/>
<path d="M685 90C685 91.3261 685.527 92.5979 686.464 93.5355C687.402 94.4732 688.674 95 690 95C691.326 95 692.598 94.4732 693.536 93.5355C694.473 92.5979 695 91.3261 695 90C695 88.6739 694.473 87.4021 693.536 86.4645C692.598 85.5268 691.326 85 690 85C688.674 85 687.402 85.5268 686.464 86.4645C685.527 87.4021 685 88.6739 685 90V90Z" stroke="#6833E4" stroke-opacity="0.1"/>
<path d="M720 120L660 180L720 120Z" stroke="#6833E4" stroke-opacity="0.1" stroke-width="3"/>
<path d="M696 204L684 216L696 204Z" stroke="#6833E4" stroke-opacity="0.1"/>
<path d="M696 264L684 276L696 264Z" stroke="#6833E4" stroke-opacity="0.1"/>
<path d="M685 330C685 331.326 685.527 332.598 686.464 333.536C687.402 334.473 688.674 335 690 335C691.326 335 692.598 334.473 693.536 333.536C694.473 332.598 695 331.326 695 330C695 328.674 694.473 327.402 693.536 326.464C692.598 325.527 691.326 325 690 325C688.674 325 687.402 325.527 686.464 326.464C685.527 327.402 685 328.674 685 330V330Z" stroke="#6833E4" stroke-opacity="0.1"/>
<path d="M685 390C685 391.326 685.527 392.598 686.464 393.536C687.402 394.473 688.674 395 690 395C691.326 395 692.598 394.473 693.536 393.536C694.473 392.598 695 391.326 695 390C695 388.674 694.473 387.402 693.536 386.464C692.598 385.527 691.326 385 690 385C688.674 385 687.402 385.527 686.464 386.464C685.527 387.402 685 388.674 685 390V390Z" stroke="#6833E4" stroke-opacity="0.1"/>
<path d="M696 444L684 456L696 444Z" stroke="#6833E4" stroke-opacity="0.1"/>
<path d="M692 508L688 512L692 508Z" stroke="#6833E4" stroke-opacity="0.1"/>
<path d="M685 570C685 571.326 685.527 572.598 686.464 573.536C687.402 574.473 688.674 575 690 575C691.326 575 692.598 574.473 693.536 573.536C694.473 572.598 695 571.326 695 570C695 568.674 694.473 567.402 693.536 566.464C692.598 565.527 691.326 565 690 565C688.674 565 687.402 565.527 686.464 566.464C685.527 567.402 685 568.674 685 570V570Z" stroke="#6833E4" stroke-opacity="0.1"/>
<path d="M692 628L688 632L692 628Z" stroke="#6833E4" stroke-opacity="0.1"/>
<path d="M687 690C687 690.796 687.316 691.559 687.879 692.121C688.441 692.684 689.204 693 690 693C690.796 693 691.559 692.684 692.121 692.121C692.684 691.559 693 690.796 693 690C693 689.204 692.684 688.441 692.121 687.879C691.559 687.316 690.796 687 690 687C689.204 687 688.441 687.316 687.879 687.879C687.316 688.441 687 689.204 687 690V690Z" stroke="#6833E4" stroke-opacity="0.1"/>
<path d="M32 748L28 752L32 748Z" stroke="#6833E4" stroke-opacity="0.1"/>
<path d="M29 810C29 810.265 29.1054 810.52 29.2929 810.707C29.4804 810.895 29.7348 811 30 811C30.2652 811 30.5196 810.895 30.7071 810.707C30.8946 810.52 31 810.265 31 810C31 809.735 30.8946 809.48 30.7071 809.293C30.5196 809.105 30.2652 809 30 809C29.7348 809 29.4804 809.105 29.2929 809.293C29.1054 809.48 29 809.735 29 810V810Z" stroke="#6833E4" stroke-opacity="0.1"/>
<path d="M36 864L24 876L36 864Z" stroke="#6833E4" stroke-opacity="0.1"/>
<path d="M25 930C25 931.326 25.5268 932.598 26.4645 933.536C27.4021 934.473 28.6739 935 30 935C31.3261 935 32.5979 934.473 33.5355 933.536C34.4732 932.598 35 931.326 35 930C35 928.674 34.4732 927.402 33.5355 926.464C32.5979 925.527 31.3261 925 30 925C28.6739 925 27.4021 925.527 26.4645 926.464C25.5268 927.402 25 928.674 25 930V930Z" stroke="#6833E4" stroke-opacity="0.1"/>
<path d="M96 744L84 756L96 744Z" stroke="#6833E4" stroke-opacity="0.1"/>
<path d="M85 810C85 811.326 85.5268 812.598 86.4645 813.536C87.4021 814.473 88.6739 815 90 815C91.3261 815 92.5979 814.473 93.5355 813.536C94.4732 812.598 95 811.326 95 810C95 808.674 94.4732 807.402 93.5355 806.464C92.5979 805.527 91.3261 805 90 805C88.6739 805 87.4021 805.527 86.4645 806.464C85.5268 807.402 85 808.674 85 810V810Z" stroke="#6833E4" stroke-opacity="0.1"/>
<path d="M92 868L88 872L92 868Z" stroke="#6833E4" stroke-opacity="0.1"/>
<path d="M96 924L84 936L96 924Z" stroke="#6833E4" stroke-opacity="0.1"/>
<path d="M156 744L144 756L156 744Z" stroke="#6833E4" stroke-opacity="0.1"/>
<path d="M145 810C145 811.326 145.527 812.598 146.464 813.536C147.402 814.473 148.674 815 150 815C151.326 815 152.598 814.473 153.536 813.536C154.473 812.598 155 811.326 155 810C155 808.674 154.473 807.402 153.536 806.464C152.598 805.527 151.326 805 150 805C148.674 805 147.402 805.527 146.464 806.464C145.527 807.402 145 808.674 145 810V810Z" stroke="#6833E4" stroke-opacity="0.1"/>
<path d="M152 868L148 872L152 868Z" stroke="#6833E4" stroke-opacity="0.1"/>
<path d="M145 930C145 931.326 145.527 932.598 146.464 933.536C147.402 934.473 148.674 935 150 935C151.326 935 152.598 934.473 153.536 933.536C154.473 932.598 155 931.326 155 930C155 928.674 154.473 927.402 153.536 926.464C152.598 925.527 151.326 925 150 925C148.674 925 147.402 925.527 146.464 926.464C145.527 927.402 145 928.674 145 930V930Z" stroke="#6833E4" stroke-opacity="0.1"/>
<path d="M216 744L204 756L216 744Z" stroke="#6833E4" stroke-opacity="0.1"/>
<path d="M205 810C205 811.326 205.527 812.598 206.464 813.536C207.402 814.473 208.674 815 210 815C211.326 815 212.598 814.473 213.536 813.536C214.473 812.598 215 811.326 215 810C215 808.674 214.473 807.402 213.536 806.464C212.598 805.527 211.326 805 210 805C208.674 805 207.402 805.527 206.464 806.464C205.527 807.402 205 808.674 205 810V810Z" stroke="#6833E4" stroke-opacity="0.1"/>
<path d="M216 864L204 876L216 864Z" stroke="#6833E4" stroke-opacity="0.1"/>
<path d="M216 924L204 936L216 924Z" stroke="#6833E4" stroke-opacity="0.1"/>
<path d="M265 750C265 751.326 265.527 752.598 266.464 753.536C267.402 754.473 268.674 755 270 755C271.326 755 272.598 754.473 273.536 753.536C274.473 752.598 275 751.326 275 750C275 748.674 274.473 747.402 273.536 746.464C272.598 745.527 271.326 745 270 745C268.674 745 267.402 745.527 266.464 746.464C265.527 747.402 265 748.674 265 750V750Z" stroke="#6833E4" stroke-opacity="0.1"/>
<path d="M265 810C265 811.326 265.527 812.598 266.464 813.536C267.402 814.473 268.674 815 270 815C271.326 815 272.598 814.473 273.536 813.536C274.473 812.598 275 811.326 275 810C275 808.674 274.473 807.402 273.536 806.464C272.598 805.527 271.326 805 270 805C268.674 805 267.402 805.527 266.464 806.464C265.527 807.402 265 808.674 265 810V810Z" stroke="#6833E4" stroke-opacity="0.1"/>
<path d="M276 864L264 876L276 864Z" stroke="#6833E4" stroke-opacity="0.1"/>
<path d="M267 930C267 930.796 267.316 931.559 267.879 932.121C268.441 932.684 269.204 933 270 933C270.796 933 271.559 932.684 272.121 932.121C272.684 931.559 273 930.796 273 930C273 929.204 272.684 928.441 272.121 927.879C271.559 927.316 270.796 927 270 927C269.204 927 268.441 927.316 267.879 927.879C267.316 928.441 267 929.204 267 930V930Z" stroke="#6833E4" stroke-opacity="0.1"/>
<path d="M336 744L324 756L336 744Z" stroke="#6833E4" stroke-opacity="0.1"/>
<path d="M327 810C327 810.796 327.316 811.559 327.879 812.121C328.441 812.684 329.204 813 330 813C330.796 813 331.559 812.684 332.121 812.121C332.684 811.559 333 810.796 333 810C333 809.204 332.684 808.441 332.121 807.879C331.559 807.316 330.796 807 330 807C329.204 807 328.441 807.316 327.879 807.879C327.316 808.441 327 809.204 327 810V810Z" stroke="#6833E4" stroke-opacity="0.1"/>
<path d="M325 870C325 871.326 325.527 872.598 326.464 873.536C327.402 874.473 328.674 875 330 875C331.326 875 332.598 874.473 333.536 873.536C334.473 872.598 335 871.326 335 870C335 868.674 334.473 867.402 333.536 866.464C332.598 865.527 331.326 865 330 865C328.674 865 327.402 865.527 326.464 866.464C325.527 867.402 325 868.674 325 870V870Z" stroke="#6833E4" stroke-opacity="0.1"/>
<path d="M325 930C325 931.326 325.527 932.598 326.464 933.536C327.402 934.473 328.674 935 330 935C331.326 935 332.598 934.473 333.536 933.536C334.473 932.598 335 931.326 335 930C335 928.674 334.473 927.402 333.536 926.464C332.598 925.527 331.326 925 330 925C328.674 925 327.402 925.527 326.464 926.464C325.527 927.402 325 928.674 325 930V930Z" stroke="#6833E4" stroke-opacity="0.1"/>
<path d="M392 748L388 752L392 748Z" stroke="#6833E4" stroke-opacity="0.1"/>
<path d="M420 780L360 840L420 780Z" stroke="#6833E4" stroke-opacity="0.1" stroke-width="3"/>
<path d="M387 870C387 870.796 387.316 871.559 387.879 872.121C388.441 872.684 389.204 873 390 873C390.796 873 391.559 872.684 392.121 872.121C392.684 871.559 393 870.796 393 870C393 869.204 392.684 868.441 392.121 867.879C391.559 867.316 390.796 867 390 867C389.204 867 388.441 867.316 387.879 867.879C387.316 868.441 387 869.204 387 870V870Z" stroke="#6833E4" stroke-opacity="0.1"/>
<path d="M392 928L388 932L392 928Z" stroke="#6833E4" stroke-opacity="0.1"/>
<path d="M456 744L444 756L456 744Z" stroke="#6833E4" stroke-opacity="0.1"/>
<path d="M449 810C449 810.265 449.105 810.52 449.293 810.707C449.48 810.895 449.735 811 450 811C450.265 811 450.52 810.895 450.707 810.707C450.895 810.52 451 810.265 451 810C451 809.735 450.895 809.48 450.707 809.293C450.52 809.105 450.265 809 450 809C449.735 809 449.48 809.105 449.293 809.293C449.105 809.48 449 809.735 449 810V810Z" stroke="#6833E4" stroke-opacity="0.1"/>
<path d="M447 870C447 870.796 447.316 871.559 447.879 872.121C448.441 872.684 449.204 873 450 873C450.796 873 451.559 872.684 452.121 872.121C452.684 871.559 453 870.796 453 870C453 869.204 452.684 868.441 452.121 867.879C451.559 867.316 450.796 867 450 867C449.204 867 448.441 867.316 447.879 867.879C447.316 868.441 447 869.204 447 870V870Z" stroke="#6833E4" stroke-opacity="0.1"/>
<path d="M449 930C449 930.265 449.105 930.52 449.293 930.707C449.48 930.895 449.735 931 450 931C450.265 931 450.52 930.895 450.707 930.707C450.895 930.52 451 930.265 451 930C451 929.735 450.895 929.48 450.707 929.293C450.52 929.105 450.265 929 450 929C449.735 929 449.48 929.105 449.293 929.293C449.105 929.48 449 929.735 449 930V930Z" stroke="#6833E4" stroke-opacity="0.1"/>
<path d="M505 750C505 751.326 505.527 752.598 506.464 753.536C507.402 754.473 508.674 755 510 755C511.326 755 512.598 754.473 513.536 753.536C514.473 752.598 515 751.326 515 750C515 748.674 514.473 747.402 513.536 746.464C512.598 745.527 511.326 745 510 745C508.674 745 507.402 745.527 506.464 746.464C505.527 747.402 505 748.674 505 750V750Z" stroke="#6833E4" stroke-opacity="0.1"/>
<path d="M507 810C507 810.796 507.316 811.559 507.879 812.121C508.441 812.684 509.204 813 510 813C510.796 813 511.559 812.684 512.121 812.121C512.684 811.559 513 810.796 513 810C513 809.204 512.684 808.441 512.121 807.879C511.559 807.316 510.796 807 510 807C509.204 807 508.441 807.316 507.879 807.879C507.316 808.441 507 809.204 507 810V810Z" stroke="#6833E4" stroke-opacity="0.1"/>
<path d="M505 870C505 871.326 505.527 872.598 506.464 873.536C507.402 874.473 508.674 875 510 875C511.326 875 512.598 874.473 513.536 873.536C514.473 872.598 515 871.326 515 870C515 868.674 514.473 867.402 513.536 866.464C512.598 865.527 511.326 865 510 865C508.674 865 507.402 865.527 506.464 866.464C505.527 867.402 505 868.674 505 870V870Z" stroke="#6833E4" stroke-opacity="0.1"/>
<path d="M512 928L508 932L512 928Z" stroke="#6833E4" stroke-opacity="0.1"/>
<path d="M565 750C565 751.326 565.527 752.598 566.464 753.536C567.402 754.473 568.674 755 570 755C571.326 755 572.598 754.473 573.536 753.536C574.473 752.598 575 751.326 575 750C575 748.674 574.473 747.402 573.536 746.464C572.598 745.527 571.326 745 570 745C568.674 745 567.402 745.527 566.464 746.464C565.527 747.402 565 748.674 565 750V750Z" stroke="#6833E4" stroke-opacity="0.1"/>
<path d="M565 810C565 811.326 565.527 812.598 566.464 813.536C567.402 814.473 568.674 815 570 815C571.326 815 572.598 814.473 573.536 813.536C574.473 812.598 575 811.326 575 810C575 808.674 574.473 807.402 573.536 806.464C572.598 805.527 571.326 805 570 805C568.674 805 567.402 805.527 566.464 806.464C565.527 807.402 565 808.674 565 810V810Z" stroke="#6833E4" stroke-opacity="0.1"/>
<path d="M576 864L564 876L576 864Z" stroke="#6833E4" stroke-opacity="0.1"/>
<path d="M565 930C565 931.326 565.527 932.598 566.464 933.536C567.402 934.473 568.674 935 570 935C571.326 935 572.598 934.473 573.536 933.536C574.473 932.598 575 931.326 575 930C575 928.674 574.473 927.402 573.536 926.464C572.598 925.527 571.326 925 570 925C568.674 925 567.402 925.527 566.464 926.464C565.527 927.402 565 928.674 565 930V930Z" stroke="#6833E4" stroke-opacity="0.1"/>
<path d="M636 744L624 756L636 744Z" stroke="#6833E4" stroke-opacity="0.1"/>
<path d="M636 804L624 816L636 804Z" stroke="#6833E4" stroke-opacity="0.1"/>
<path d="M625 870C625 871.326 625.527 872.598 626.464 873.536C627.402 874.473 628.674 875 630 875C631.326 875 632.598 874.473 633.536 873.536C634.473 872.598 635 871.326 635 870C635 868.674 634.473 867.402 633.536 866.464C632.598 865.527 631.326 865 630 865C628.674 865 627.402 865.527 626.464 866.464C625.527 867.402 625 868.674 625 870V870Z" stroke="#6833E4" stroke-opacity="0.1"/>
<path d="M636 924L624 936L636 924Z" stroke="#6833E4" stroke-opacity="0.1"/>
<path d="M685 750C685 751.326 685.527 752.598 686.464 753.536C687.402 754.473 688.674 755 690 755C691.326 755 692.598 754.473 693.536 753.536C694.473 752.598 695 751.326 695 750C695 748.674 694.473 747.402 693.536 746.464C692.598 745.527 691.326 745 690 745C688.674 745 687.402 745.527 686.464 746.464C685.527 747.402 685 748.674 685 750V750Z" stroke="#6833E4" stroke-opacity="0.1"/>
<path d="M685 810C685 811.326 685.527 812.598 686.464 813.536C687.402 814.473 688.674 815 690 815C691.326 815 692.598 814.473 693.536 813.536C694.473 812.598 695 811.326 695 810C695 808.674 694.473 807.402 693.536 806.464C692.598 805.527 691.326 805 690 805C688.674 805 687.402 805.527 686.464 806.464C685.527 807.402 685 808.674 685 810V810Z" stroke="#6833E4" stroke-opacity="0.1"/>
<path d="M720 840L660 900L720 840Z" stroke="#6833E4" stroke-opacity="0.1" stroke-width="3"/>
<path d="M696 924L684 936L696 924Z" stroke="#6833E4" stroke-opacity="0.1"/>
<path d="M752 28L748 32L752 28Z" stroke="#6833E4" stroke-opacity="0.1"/>
<path d="M749 90C749 90.2652 749.105 90.5196 749.293 90.7071C749.48 90.8946 749.735 91 750 91C750.265 91 750.52 90.8946 750.707 90.7071C750.895 90.5196 751 90.2652 751 90C751 89.7348 750.895 89.4804 750.707 89.2929C750.52 89.1054 750.265 89 750 89C749.735 89 749.48 89.1054 749.293 89.2929C749.105 89.4804 749 89.7348 749 90V90Z" stroke="#6833E4" stroke-opacity="0.1"/>
<path d="M756 144L744 156L756 144Z" stroke="#6833E4" stroke-opacity="0.1"/>
<path d="M745 210C745 211.326 745.527 212.598 746.464 213.536C747.402 214.473 748.674 215 750 215C751.326 215 752.598 214.473 753.536 213.536C754.473 212.598 755 211.326 755 210C755 208.674 754.473 207.402 753.536 206.464C752.598 205.527 751.326 205 750 205C748.674 205 747.402 205.527 746.464 206.464C745.527 207.402 745 208.674 745 210V210Z" stroke="#6833E4" stroke-opacity="0.1"/>
<path d="M752 268L748 272L752 268Z" stroke="#6833E4" stroke-opacity="0.1"/>
<path d="M752 328L748 332L752 328Z" stroke="#6833E4" stroke-opacity="0.1"/>
<path d="M780 360L720 420L780 360Z" stroke="#6833E4" stroke-opacity="0.1" stroke-width="3"/>
<path d="M780 420L720 480L780 420Z" stroke="#6833E4" stroke-opacity="0.1" stroke-width="3"/>
<path d="M756 504L744 516L756 504Z" stroke="#6833E4" stroke-opacity="0.1"/>
<path d="M747 570C747 570.796 747.316 571.559 747.879 572.121C748.441 572.684 749.204 573 750 573C750.796 573 751.559 572.684 752.121 572.121C752.684 571.559 753 570.796 753 570C753 569.204 752.684 568.441 752.121 567.879C751.559 567.316 750.796 567 750 567C749.204 567 748.441 567.316 747.879 567.879C747.316 568.441 747 569.204 747 570V570Z" stroke="#6833E4" stroke-opacity="0.1"/>
<path d="M756 624L744 636L756 624Z" stroke="#6833E4" stroke-opacity="0.1"/>
<path d="M745 690C745 691.326 745.527 692.598 746.464 693.536C747.402 694.473 748.674 695 750 695C751.326 695 752.598 694.473 753.536 693.536C754.473 692.598 755 691.326 755 690C755 688.674 754.473 687.402 753.536 686.464C752.598 685.527 751.326 685 750 685C748.674 685 747.402 685.527 746.464 686.464C745.527 687.402 745 688.674 745 690V690Z" stroke="#6833E4" stroke-opacity="0.1"/>
<path d="M816 24L804 36L816 24Z" stroke="#6833E4" stroke-opacity="0.1"/>
<path d="M805 90C805 91.3261 805.527 92.5979 806.464 93.5355C807.402 94.4732 808.674 95 810 95C811.326 95 812.598 94.4732 813.536 93.5355C814.473 92.5979 815 91.3261 815 90C815 88.6739 814.473 87.4021 813.536 86.4645C812.598 85.5268 811.326 85 810 85C808.674 85 807.402 85.5268 806.464 86.4645C805.527 87.4021 805 88.6739 805 90V90Z" stroke="#6833E4" stroke-opacity="0.1"/>
<path d="M812 148L808 152L812 148Z" stroke="#6833E4" stroke-opacity="0.1"/>
<path d="M816 204L804 216L816 204Z" stroke="#6833E4" stroke-opacity="0.1"/>
<path d="M812 268L808 272L812 268Z" stroke="#6833E4" stroke-opacity="0.1"/>
<path d="M805 330C805 331.326 805.527 332.598 806.464 333.536C807.402 334.473 808.674 335 810 335C811.326 335 812.598 334.473 813.536 333.536C814.473 332.598 815 331.326 815 330C815 328.674 814.473 327.402 813.536 326.464C812.598 325.527 811.326 325 810 325C808.674 325 807.402 325.527 806.464 326.464C805.527 327.402 805 328.674 805 330V330Z" stroke="#6833E4" stroke-opacity="0.1"/>
<path d="M805 390C805 391.326 805.527 392.598 806.464 393.536C807.402 394.473 808.674 395 810 395C811.326 395 812.598 394.473 813.536 393.536C814.473 392.598 815 391.326 815 390C815 388.674 814.473 387.402 813.536 386.464C812.598 385.527 811.326 385 810 385C808.674 385 807.402 385.527 806.464 386.464C805.527 387.402 805 388.674 805 390V390Z" stroke="#6833E4" stroke-opacity="0.1"/>
<path d="M816 444L804 456L816 444Z" stroke="#6833E4" stroke-opacity="0.1"/>
<path d="M807 510C807 510.796 807.316 511.559 807.879 512.121C808.441 512.684 809.204 513 810 513C810.796 513 811.559 512.684 812.121 512.121C812.684 511.559 813 510.796 813 510C813 509.204 812.684 508.441 812.121 507.879C811.559 507.316 810.796 507 810 507C809.204 507 808.441 507.316 807.879 507.879C807.316 508.441 807 509.204 807 510V510Z" stroke="#6833E4" stroke-opacity="0.1"/>
<path d="M816 564L804 576L816 564Z" stroke="#6833E4" stroke-opacity="0.1"/>
<path d="M816 624L804 636L816 624Z" stroke="#6833E4" stroke-opacity="0.1"/>
<path d="M840 660L780 720L840 660Z" stroke="#6833E4" stroke-opacity="0.1" stroke-width="3"/>
<path d="M876 24L864 36L876 24Z" stroke="#6833E4" stroke-opacity="0.1"/>
<path d="M865 90C865 91.3261 865.527 92.5979 866.464 93.5355C867.402 94.4732 868.674 95 870 95C871.326 95 872.598 94.4732 873.536 93.5355C874.473 92.5979 875 91.3261 875 90C875 88.6739 874.473 87.4021 873.536 86.4645C872.598 85.5268 871.326 85 870 85C868.674 85 867.402 85.5268 866.464 86.4645C865.527 87.4021 865 88.6739 865 90V90Z" stroke="#6833E4" stroke-opacity="0.1"/>
<path d="M872 148L868 152L872 148Z" stroke="#6833E4" stroke-opacity="0.1"/>
<path d="M865 210C865 211.326 865.527 212.598 866.464 213.536C867.402 214.473 868.674 215 870 215C871.326 215 872.598 214.473 873.536 213.536C874.473 212.598 875 211.326 875 210C875 208.674 874.473 207.402 873.536 206.464C872.598 205.527 871.326 205 870 205C868.674 205 867.402 205.527 866.464 206.464C865.527 207.402 865 208.674 865 210V210Z" stroke="#6833E4" stroke-opacity="0.1"/>
<path d="M865 270C865 271.326 865.527 272.598 866.464 273.536C867.402 274.473 868.674 275 870 275C871.326 275 872.598 274.473 873.536 273.536C874.473 272.598 875 271.326 875 270C875 268.674 874.473 267.402 873.536 266.464C872.598 265.527 871.326 265 870 265C868.674 265 867.402 265.527 866.464 266.464C865.527 267.402 865 268.674 865 270V270Z" stroke="#6833E4" stroke-opacity="0.1"/>
<path d="M872 328L868 332L872 328Z" stroke="#6833E4" stroke-opacity="0.1"/>
<path d="M865 390C865 391.326 865.527 392.598 866.464 393.536C867.402 394.473 868.674 395 870 395C871.326 395 872.598 394.473 873.536 393.536C874.473 392.598 875 391.326 875 390C875 388.674 874.473 387.402 873.536 386.464C872.598 385.527 871.326 385 870 385C868.674 385 867.402 385.527 866.464 386.464C865.527 387.402 865 388.674 865 390V390Z" stroke="#6833E4" stroke-opacity="0.1"/>
<path d="M876 444L864 456L876 444Z" stroke="#6833E4" stroke-opacity="0.1"/>
<path d="M865 510C865 511.326 865.527 512.598 866.464 513.536C867.402 514.473 868.674 515 870 515C871.326 515 872.598 514.473 873.536 513.536C874.473 512.598 875 511.326 875 510C875 508.674 874.473 507.402 873.536 506.464C872.598 505.527 871.326 505 870 505C868.674 505 867.402 505.527 866.464 506.464C865.527 507.402 865 508.674 865 510V510Z" stroke="#6833E4" stroke-opacity="0.1"/>
<path d="M876 564L864 576L876 564Z" stroke="#6833E4" stroke-opacity="0.1"/>
<path d="M872 628L868 632L872 628Z" stroke="#6833E4" stroke-opacity="0.1"/>
<path d="M869 690C869 690.265 869.105 690.52 869.293 690.707C869.48 690.895 869.735 691 870 691C870.265 691 870.52 690.895 870.707 690.707C870.895 690.52 871 690.265 871 690C871 689.735 870.895 689.48 870.707 689.293C870.52 689.105 870.265 689 870 689C869.735 689 869.48 689.105 869.293 689.293C869.105 689.48 869 689.735 869 690V690Z" stroke="#6833E4" stroke-opacity="0.1"/>
<path d="M936 24L924 36L936 24Z" stroke="#6833E4" stroke-opacity="0.1"/>
<path d="M925 90C925 91.3261 925.527 92.5979 926.464 93.5355C927.402 94.4732 928.674 95 930 95C931.326 95 932.598 94.4732 933.536 93.5355C934.473 92.5979 935 91.3261 935 90C935 88.6739 934.473 87.4021 933.536 86.4645C932.598 85.5268 931.326 85 930 85C928.674 85 927.402 85.5268 926.464 86.4645C925.527 87.4021 925 88.6739 925 90V90Z" stroke="#6833E4" stroke-opacity="0.1"/>
<path d="M936 144L924 156L936 144Z" stroke="#6833E4" stroke-opacity="0.1"/>
<path d="M936 204L924 216L936 204Z" stroke="#6833E4" stroke-opacity="0.1"/>
<path d="M929 270C929 270.265 929.105 270.52 929.293 270.707C929.48 270.895 929.735 271 930 271C930.265 271 930.52 270.895 930.707 270.707C930.895 270.52 931 270.265 931 270C931 269.735 930.895 269.48 930.707 269.293C930.52 269.105 930.265 269 930 269C929.735 269 929.48 269.105 929.293 269.293C929.105 269.48 929 269.735 929 270V270Z" stroke="#6833E4" stroke-opacity="0.1"/>
<path d="M936 324L924 336L936 324Z" stroke="#6833E4" stroke-opacity="0.1"/>
<path d="M927 390C927 390.796 927.316 391.559 927.879 392.121C928.441 392.684 929.204 393 930 393C930.796 393 931.559 392.684 932.121 392.121C932.684 391.559 933 390.796 933 390C933 389.204 932.684 388.441 932.121 387.879C931.559 387.316 930.796 387 930 387C929.204 387 928.441 387.316 927.879 387.879C927.316 388.441 927 389.204 927 390V390Z" stroke="#6833E4" stroke-opacity="0.1"/>
<path d="M929 450C929 450.265 929.105 450.52 929.293 450.707C929.48 450.895 929.735 451 930 451C930.265 451 930.52 450.895 930.707 450.707C930.895 450.52 931 450.265 931 450C931 449.735 930.895 449.48 930.707 449.293C930.52 449.105 930.265 449 930 449C929.735 449 929.48 449.105 929.293 449.293C929.105 449.48 929 449.735 929 450V450Z" stroke="#6833E4" stroke-opacity="0.1"/>
<path d="M925 510C925 511.326 925.527 512.598 926.464 513.536C927.402 514.473 928.674 515 930 515C931.326 515 932.598 514.473 933.536 513.536C934.473 512.598 935 511.326 935 510C935 508.674 934.473 507.402 933.536 506.464C932.598 505.527 931.326 505 930 505C928.674 505 927.402 505.527 926.464 506.464C925.527 507.402 925 508.674 925 510V510Z" stroke="#6833E4" stroke-opacity="0.1"/>
<path d="M925 570C925 571.326 925.527 572.598 926.464 573.536C927.402 574.473 928.674 575 930 575C931.326 575 932.598 574.473 933.536 573.536C934.473 572.598 935 571.326 935 570C935 568.674 934.473 567.402 933.536 566.464C932.598 565.527 931.326 565 930 565C928.674 565 927.402 565.527 926.464 566.464C925.527 567.402 925 568.674 925 570V570Z" stroke="#6833E4" stroke-opacity="0.1"/>
<path d="M927 630C927 630.796 927.316 631.559 927.879 632.121C928.441 632.684 929.204 633 930 633C930.796 633 931.559 632.684 932.121 632.121C932.684 631.559 933 630.796 933 630C933 629.204 932.684 628.441 932.121 627.879C931.559 627.316 930.796 627 930 627C929.204 627 928.441 627.316 927.879 627.879C927.316 628.441 927 629.204 927 630V630Z" stroke="#6833E4" stroke-opacity="0.1"/>
<path d="M925 690C925 691.326 925.527 692.598 926.464 693.536C927.402 694.473 928.674 695 930 695C931.326 695 932.598 694.473 933.536 693.536C934.473 692.598 935 691.326 935 690C935 688.674 934.473 687.402 933.536 686.464C932.598 685.527 931.326 685 930 685C928.674 685 927.402 685.527 926.464 686.464C925.527 687.402 925 688.674 925 690V690Z" stroke="#6833E4" stroke-opacity="0.1"/>
<path d="M985 30C985 31.3261 985.527 32.5979 986.464 33.5355C987.402 34.4732 988.674 35 990 35C991.326 35 992.598 34.4732 993.536 33.5355C994.473 32.5979 995 31.3261 995 30C995 28.6739 994.473 27.4021 993.536 26.4645C992.598 25.5268 991.326 25 990 25C988.674 25 987.402 25.5268 986.464 26.4645C985.527 27.4021 985 28.6739 985 30V30Z" stroke="#6833E4" stroke-opacity="0.1"/>
<path d="M985 90C985 91.3261 985.527 92.5979 986.464 93.5355C987.402 94.4732 988.674 95 990 95C991.326 95 992.598 94.4732 993.536 93.5355C994.473 92.5979 995 91.3261 995 90C995 88.6739 994.473 87.4021 993.536 86.4645C992.598 85.5268 991.326 85 990 85C988.674 85 987.402 85.5268 986.464 86.4645C985.527 87.4021 985 88.6739 985 90V90Z" stroke="#6833E4" stroke-opacity="0.1"/>
<path d="M996 144L984 156L996 144Z" stroke="#6833E4" stroke-opacity="0.1"/>
<path d="M987 210C987 210.796 987.316 211.559 987.879 212.121C988.441 212.684 989.204 213 990 213C990.796 213 991.559 212.684 992.121 212.121C992.684 211.559 993 210.796 993 210C993 209.204 992.684 208.441 992.121 207.879C991.559 207.316 990.796 207 990 207C989.204 207 988.441 207.316 987.879 207.879C987.316 208.441 987 209.204 987 210V210Z" stroke="#6833E4" stroke-opacity="0.1"/>
<path d="M996 264L984 276L996 264Z" stroke="#6833E4" stroke-opacity="0.1"/>
<path d="M989 330C989 330.265 989.105 330.52 989.293 330.707C989.48 330.895 989.735 331 990 331C990.265 331 990.52 330.895 990.707 330.707C990.895 330.52 991 330.265 991 330C991 329.735 990.895 329.48 990.707 329.293C990.52 329.105 990.265 329 990 329C989.735 329 989.48 329.105 989.293 329.293C989.105 329.48 989 329.735 989 330V330Z" stroke="#6833E4" stroke-opacity="0.1"/>
<path d="M985 390C985 391.326 985.527 392.598 986.464 393.536C987.402 394.473 988.674 395 990 395C991.326 395 992.598 394.473 993.536 393.536C994.473 392.598 995 391.326 995 390C995 388.674 994.473 387.402 993.536 386.464C992.598 385.527 991.326 385 990 385C988.674 385 987.402 385.527 986.464 386.464C985.527 387.402 985 388.674 985 390V390Z" stroke="#6833E4" stroke-opacity="0.1"/>
<path d="M992 448L988 452L992 448Z" stroke="#6833E4" stroke-opacity="0.1"/>
<path d="M992 508L988 512L992 508Z" stroke="#6833E4" stroke-opacity="0.1"/>
<path d="M992 568L988 572L992 568Z" stroke="#6833E4" stroke-opacity="0.1"/>
<path d="M985 630C985 631.326 985.527 632.598 986.464 633.536C987.402 634.473 988.674 635 990 635C991.326 635 992.598 634.473 993.536 633.536C994.473 632.598 995 631.326 995 630C995 628.674 994.473 627.402 993.536 626.464C992.598 625.527 991.326 625 990 625C988.674 625 987.402 625.527 986.464 626.464C985.527 627.402 985 628.674 985 630V630Z" stroke="#6833E4" stroke-opacity="0.1"/>
<path d="M989 690C989 690.265 989.105 690.52 989.293 690.707C989.48 690.895 989.735 691 990 691C990.265 691 990.52 690.895 990.707 690.707C990.895 690.52 991 690.265 991 690C991 689.735 990.895 689.48 990.707 689.293C990.52 689.105 990.265 689 990 689C989.735 689 989.48 689.105 989.293 689.293C989.105 689.48 989 689.735 989 690V690Z" stroke="#6833E4" stroke-opacity="0.1"/>
<path d="M1056 24L1044 36L1056 24Z" stroke="#6833E4" stroke-opacity="0.1"/>
<path d="M1047 90C1047 90.7956 1047.32 91.5587 1047.88 92.1213C1048.44 92.6839 1049.2 93 1050 93C1050.8 93 1051.56 92.6839 1052.12 92.1213C1052.68 91.5587 1053 90.7956 1053 90C1053 89.2044 1052.68 88.4413 1052.12 87.8787C1051.56 87.3161 1050.8 87 1050 87C1049.2 87 1048.44 87.3161 1047.88 87.8787C1047.32 88.4413 1047 89.2044 1047 90V90Z" stroke="#6833E4" stroke-opacity="0.1"/>
<path d="M1045 150C1045 151.326 1045.53 152.598 1046.46 153.536C1047.4 154.473 1048.67 155 1050 155C1051.33 155 1052.6 154.473 1053.54 153.536C1054.47 152.598 1055 151.326 1055 150C1055 148.674 1054.47 147.402 1053.54 146.464C1052.6 145.527 1051.33 145 1050 145C1048.67 145 1047.4 145.527 1046.46 146.464C1045.53 147.402 1045 148.674 1045 150V150Z" stroke="#6833E4" stroke-opacity="0.1"/>
<path d="M1045 210C1045 211.326 1045.53 212.598 1046.46 213.536C1047.4 214.473 1048.67 215 1050 215C1051.33 215 1052.6 214.473 1053.54 213.536C1054.47 212.598 1055 211.326 1055 210C1055 208.674 1054.47 207.402 1053.54 206.464C1052.6 205.527 1051.33 205 1050 205C1048.67 205 1047.4 205.527 1046.46 206.464C1045.53 207.402 1045 208.674 1045 210V210Z" stroke="#6833E4" stroke-opacity="0.1"/>
<path d="M1056 264L1044 276L1056 264Z" stroke="#6833E4" stroke-opacity="0.1"/>
<path d="M1049 330C1049 330.265 1049.11 330.52 1049.29 330.707C1049.48 330.895 1049.73 331 1050 331C1050.27 331 1050.52 330.895 1050.71 330.707C1050.89 330.52 1051 330.265 1051 330C1051 329.735 1050.89 329.48 1050.71 329.293C1050.52 329.105 1050.27 329 1050 329C1049.73 329 1049.48 329.105 1049.29 329.293C1049.11 329.48 1049 329.735 1049 330V330Z" stroke="#6833E4" stroke-opacity="0.1"/>
<path d="M1056 384L1044 396L1056 384Z" stroke="#6833E4" stroke-opacity="0.1"/>
<path d="M1052 448L1048 452L1052 448Z" stroke="#6833E4" stroke-opacity="0.1"/>
<path d="M1056 504L1044 516L1056 504Z" stroke="#6833E4" stroke-opacity="0.1"/>
<path d="M1052 568L1048 572L1052 568Z" stroke="#6833E4" stroke-opacity="0.1"/>
<path d="M1047 630C1047 630.796 1047.32 631.559 1047.88 632.121C1048.44 632.684 1049.2 633 1050 633C1050.8 633 1051.56 632.684 1052.12 632.121C1052.68 631.559 1053 630.796 1053 630C1053 629.204 1052.68 628.441 1052.12 627.879C1051.56 627.316 1050.8 627 1050 627C1049.2 627 1048.44 627.316 1047.88 627.879C1047.32 628.441 1047 629.204 1047 630V630Z" stroke="#6833E4" stroke-opacity="0.1"/>
<path d="M1056 684L1044 696L1056 684Z" stroke="#6833E4" stroke-opacity="0.1"/>
<path d="M1112 28L1108 32L1112 28Z" stroke="#6833E4" stroke-opacity="0.1"/>
<path d="M1140 60L1080 120L1140 60Z" stroke="#6833E4" stroke-opacity="0.1" stroke-width="3"/>
<path d="M1107 150C1107 150.796 1107.32 151.559 1107.88 152.121C1108.44 152.684 1109.2 153 1110 153C1110.8 153 1111.56 152.684 1112.12 152.121C1112.68 151.559 1113 150.796 1113 150C1113 149.204 1112.68 148.441 1112.12 147.879C1111.56 147.316 1110.8 147 1110 147C1109.2 147 1108.44 147.316 1107.88 147.879C1107.32 148.441 1107 149.204 1107 150V150Z" stroke="#6833E4" stroke-opacity="0.1"/>
<path d="M1112 208L1108 212L1112 208Z" stroke="#6833E4" stroke-opacity="0.1"/>
<path d="M1116 264L1104 276L1116 264Z" stroke="#6833E4" stroke-opacity="0.1"/>
<path d="M1107 330C1107 330.796 1107.32 331.559 1107.88 332.121C1108.44 332.684 1109.2 333 1110 333C1110.8 333 1111.56 332.684 1112.12 332.121C1112.68 331.559 1113 330.796 1113 330C1113 329.204 1112.68 328.441 1112.12 327.879C1111.56 327.316 1110.8 327 1110 327C1109.2 327 1108.44 327.316 1107.88 327.879C1107.32 328.441 1107 329.204 1107 330V330Z" stroke="#6833E4" stroke-opacity="0.1"/>
<path d="M1112 388L1108 392L1112 388Z" stroke="#6833E4" stroke-opacity="0.1"/>
<path d="M1107 450C1107 450.796 1107.32 451.559 1107.88 452.121C1108.44 452.684 1109.2 453 1110 453C1110.8 453 1111.56 452.684 1112.12 452.121C1112.68 451.559 1113 450.796 1113 450C1113 449.204 1112.68 448.441 1112.12 447.879C1111.56 447.316 1110.8 447 1110 447C1109.2 447 1108.44 447.316 1107.88 447.879C1107.32 448.441 1107 449.204 1107 450V450Z" stroke="#6833E4" stroke-opacity="0.1"/>
<path d="M1105 510C1105 511.326 1105.53 512.598 1106.46 513.536C1107.4 514.473 1108.67 515 1110 515C1111.33 515 1112.6 514.473 1113.54 513.536C1114.47 512.598 1115 511.326 1115 510C1115 508.674 1114.47 507.402 1113.54 506.464C1112.6 505.527 1111.33 505 1110 505C1108.67 505 1107.4 505.527 1106.46 506.464C1105.53 507.402 1105 508.674 1105 510V510Z" stroke="#6833E4" stroke-opacity="0.1"/>
<path d="M1109 570C1109 570.265 1109.11 570.52 1109.29 570.707C1109.48 570.895 1109.73 571 1110 571C1110.27 571 1110.52 570.895 1110.71 570.707C1110.89 570.52 1111 570.265 1111 570C1111 569.735 1110.89 569.48 1110.71 569.293C1110.52 569.105 1110.27 569 1110 569C1109.73 569 1109.48 569.105 1109.29 569.293C1109.11 569.48 1109 569.735 1109 570V570Z" stroke="#6833E4" stroke-opacity="0.1"/>
<path d="M1116 624L1104 636L1116 624Z" stroke="#6833E4" stroke-opacity="0.1"/>
<path d="M1112 688L1108 692L1112 688Z" stroke="#6833E4" stroke-opacity="0.1"/>
<path d="M1176 24L1164 36L1176 24Z" stroke="#6833E4" stroke-opacity="0.1"/>
<path d="M1169 90C1169 90.2652 1169.11 90.5196 1169.29 90.7071C1169.48 90.8946 1169.73 91 1170 91C1170.27 91 1170.52 90.8946 1170.71 90.7071C1170.89 90.5196 1171 90.2652 1171 90C1171 89.7348 1170.89 89.4804 1170.71 89.2929C1170.52 89.1054 1170.27 89 1170 89C1169.73 89 1169.48 89.1054 1169.29 89.2929C1169.11 89.4804 1169 89.7348 1169 90V90Z" stroke="#6833E4" stroke-opacity="0.1"/>
<path d="M1167 150C1167 150.796 1167.32 151.559 1167.88 152.121C1168.44 152.684 1169.2 153 1170 153C1170.8 153 1171.56 152.684 1172.12 152.121C1172.68 151.559 1173 150.796 1173 150C1173 149.204 1172.68 148.441 1172.12 147.879C1171.56 147.316 1170.8 147 1170 147C1169.2 147 1168.44 147.316 1167.88 147.879C1167.32 148.441 1167 149.204 1167 150V150Z" stroke="#6833E4" stroke-opacity="0.1"/>
<path d="M1169 210C1169 210.265 1169.11 210.52 1169.29 210.707C1169.48 210.895 1169.73 211 1170 211C1170.27 211 1170.52 210.895 1170.71 210.707C1170.89 210.52 1171 210.265 1171 210C1171 209.735 1170.89 209.48 1170.71 209.293C1170.52 209.105 1170.27 209 1170 209C1169.73 209 1169.48 209.105 1169.29 209.293C1169.11 209.48 1169 209.735 1169 210V210Z" stroke="#6833E4" stroke-opacity="0.1"/>
<path d="M1176 264L1164 276L1176 264Z" stroke="#6833E4" stroke-opacity="0.1"/>
<path d="M1176 324L1164 336L1176 324Z" stroke="#6833E4" stroke-opacity="0.1"/>
<path d="M1165 390C1165 391.326 1165.53 392.598 1166.46 393.536C1167.4 394.473 1168.67 395 1170 395C1171.33 395 1172.6 394.473 1173.54 393.536C1174.47 392.598 1175 391.326 1175 390C1175 388.674 1174.47 387.402 1173.54 386.464C1172.6 385.527 1171.33 385 1170 385C1168.67 385 1167.4 385.527 1166.46 386.464C1165.53 387.402 1165 388.674 1165 390V390Z" stroke="#6833E4" stroke-opacity="0.1"/>
<path d="M1165 450C1165 451.326 1165.53 452.598 1166.46 453.536C1167.4 454.473 1168.67 455 1170 455C1171.33 455 1172.6 454.473 1173.54 453.536C1174.47 452.598 1175 451.326 1175 450C1175 448.674 1174.47 447.402 1173.54 446.464C1172.6 445.527 1171.33 445 1170 445C1168.67 445 1167.4 445.527 1166.46 446.464C1165.53 447.402 1165 448.674 1165 450V450Z" stroke="#6833E4" stroke-opacity="0.1"/>
<path d="M1165 510C1165 511.326 1165.53 512.598 1166.46 513.536C1167.4 514.473 1168.67 515 1170 515C1171.33 515 1172.6 514.473 1173.54 513.536C1174.47 512.598 1175 511.326 1175 510C1175 508.674 1174.47 507.402 1173.54 506.464C1172.6 505.527 1171.33 505 1170 505C1168.67 505 1167.4 505.527 1166.46 506.464C1165.53 507.402 1165 508.674 1165 510V510Z" stroke="#6833E4" stroke-opacity="0.1"/>
<path d="M1169 570C1169 570.265 1169.11 570.52 1169.29 570.707C1169.48 570.895 1169.73 571 1170 571C1170.27 571 1170.52 570.895 1170.71 570.707C1170.89 570.52 1171 570.265 1171 570C1171 569.735 1170.89 569.48 1170.71 569.293C1170.52 569.105 1170.27 569 1170 569C1169.73 569 1169.48 569.105 1169.29 569.293C1169.11 569.48 1169 569.735 1169 570V570Z" stroke="#6833E4" stroke-opacity="0.1"/>
<path d="M1172 628L1168 632L1172 628Z" stroke="#6833E4" stroke-opacity="0.1"/>
<path d="M1176 684L1164 696L1176 684Z" stroke="#6833E4" stroke-opacity="0.1"/>
<path d="M1225 30C1225 31.3261 1225.53 32.5979 1226.46 33.5355C1227.4 34.4732 1228.67 35 1230 35C1231.33 35 1232.6 34.4732 1233.54 33.5355C1234.47 32.5979 1235 31.3261 1235 30C1235 28.6739 1234.47 27.4021 1233.54 26.4645C1232.6 25.5268 1231.33 25 1230 25C1228.67 25 1227.4 25.5268 1226.46 26.4645C1225.53 27.4021 1225 28.6739 1225 30V30Z" stroke="#6833E4" stroke-opacity="0.1"/>
<path d="M1227 90C1227 90.7956 1227.32 91.5587 1227.88 92.1213C1228.44 92.6839 1229.2 93 1230 93C1230.8 93 1231.56 92.6839 1232.12 92.1213C1232.68 91.5587 1233 90.7956 1233 90C1233 89.2044 1232.68 88.4413 1232.12 87.8787C1231.56 87.3161 1230.8 87 1230 87C1229.2 87 1228.44 87.3161 1227.88 87.8787C1227.32 88.4413 1227 89.2044 1227 90V90Z" stroke="#6833E4" stroke-opacity="0.1"/>
<path d="M1225 150C1225 151.326 1225.53 152.598 1226.46 153.536C1227.4 154.473 1228.67 155 1230 155C1231.33 155 1232.6 154.473 1233.54 153.536C1234.47 152.598 1235 151.326 1235 150C1235 148.674 1234.47 147.402 1233.54 146.464C1232.6 145.527 1231.33 145 1230 145C1228.67 145 1227.4 145.527 1226.46 146.464C1225.53 147.402 1225 148.674 1225 150V150Z" stroke="#6833E4" stroke-opacity="0.1"/>
<path d="M1232 208L1228 212L1232 208Z" stroke="#6833E4" stroke-opacity="0.1"/>
<path d="M1225 270C1225 271.326 1225.53 272.598 1226.46 273.536C1227.4 274.473 1228.67 275 1230 275C1231.33 275 1232.6 274.473 1233.54 273.536C1234.47 272.598 1235 271.326 1235 270C1235 268.674 1234.47 267.402 1233.54 266.464C1232.6 265.527 1231.33 265 1230 265C1228.67 265 1227.4 265.527 1226.46 266.464C1225.53 267.402 1225 268.674 1225 270V270Z" stroke="#6833E4" stroke-opacity="0.1"/>
<path d="M1225 330C1225 331.326 1225.53 332.598 1226.46 333.536C1227.4 334.473 1228.67 335 1230 335C1231.33 335 1232.6 334.473 1233.54 333.536C1234.47 332.598 1235 331.326 1235 330C1235 328.674 1234.47 327.402 1233.54 326.464C1232.6 325.527 1231.33 325 1230 325C1228.67 325 1227.4 325.527 1226.46 326.464C1225.53 327.402 1225 328.674 1225 330V330Z" stroke="#6833E4" stroke-opacity="0.1"/>
<path d="M1229 390C1229 390.265 1229.11 390.52 1229.29 390.707C1229.48 390.895 1229.73 391 1230 391C1230.27 391 1230.52 390.895 1230.71 390.707C1230.89 390.52 1231 390.265 1231 390C1231 389.735 1230.89 389.48 1230.71 389.293C1230.52 389.105 1230.27 389 1230 389C1229.73 389 1229.48 389.105 1229.29 389.293C1229.11 389.48 1229 389.735 1229 390V390Z" stroke="#6833E4" stroke-opacity="0.1"/>
<path d="M1232 448L1228 452L1232 448Z" stroke="#6833E4" stroke-opacity="0.1"/>
<path d="M1225 510C1225 511.326 1225.53 512.598 1226.46 513.536C1227.4 514.473 1228.67 515 1230 515C1231.33 515 1232.6 514.473 1233.54 513.536C1234.47 512.598 1235 511.326 1235 510C1235 508.674 1234.47 507.402 1233.54 506.464C1232.6 505.527 1231.33 505 1230 505C1228.67 505 1227.4 505.527 1226.46 506.464C1225.53 507.402 1225 508.674 1225 510V510Z" stroke="#6833E4" stroke-opacity="0.1"/>
<path d="M1225 570C1225 571.326 1225.53 572.598 1226.46 573.536C1227.4 574.473 1228.67 575 1230 575C1231.33 575 1232.6 574.473 1233.54 573.536C1234.47 572.598 1235 571.326 1235 570C1235 568.674 1234.47 567.402 1233.54 566.464C1232.6 565.527 1231.33 565 1230 565C1228.67 565 1227.4 565.527 1226.46 566.464C1225.53 567.402 1225 568.674 1225 570V570Z" stroke="#6833E4" stroke-opacity="0.1"/>
<path d="M1236 624L1224 636L1236 624Z" stroke="#6833E4" stroke-opacity="0.1"/>
<path d="M1227 690C1227 690.796 1227.32 691.559 1227.88 692.121C1228.44 692.684 1229.2 693 1230 693C1230.8 693 1231.56 692.684 1232.12 692.121C1232.68 691.559 1233 690.796 1233 690C1233 689.204 1232.68 688.441 1232.12 687.879C1231.56 687.316 1230.8 687 1230 687C1229.2 687 1228.44 687.316 1227.88 687.879C1227.32 688.441 1227 689.204 1227 690V690Z" stroke="#6833E4" stroke-opacity="0.1"/>
<path d="M1285 30C1285 31.3261 1285.53 32.5979 1286.46 33.5355C1287.4 34.4732 1288.67 35 1290 35C1291.33 35 1292.6 34.4732 1293.54 33.5355C1294.47 32.5979 1295 31.3261 1295 30C1295 28.6739 1294.47 27.4021 1293.54 26.4645C1292.6 25.5268 1291.33 25 1290 25C1288.67 25 1287.4 25.5268 1286.46 26.4645C1285.53 27.4021 1285 28.6739 1285 30V30Z" stroke="#6833E4" stroke-opacity="0.1"/>
<path d="M1285 90C1285 91.3261 1285.53 92.5979 1286.46 93.5355C1287.4 94.4732 1288.67 95 1290 95C1291.33 95 1292.6 94.4732 1293.54 93.5355C1294.47 92.5979 1295 91.3261 1295 90C1295 88.6739 1294.47 87.4021 1293.54 86.4645C1292.6 85.5268 1291.33 85 1290 85C1288.67 85 1287.4 85.5268 1286.46 86.4645C1285.53 87.4021 1285 88.6739 1285 90V90Z" stroke="#6833E4" stroke-opacity="0.1"/>
<path d="M1296 144L1284 156L1296 144Z" stroke="#6833E4" stroke-opacity="0.1"/>
<path d="M1285 210C1285 211.326 1285.53 212.598 1286.46 213.536C1287.4 214.473 1288.67 215 1290 215C1291.33 215 1292.6 214.473 1293.54 213.536C1294.47 212.598 1295 211.326 1295 210C1295 208.674 1294.47 207.402 1293.54 206.464C1292.6 205.527 1291.33 205 1290 205C1288.67 205 1287.4 205.527 1286.46 206.464C1285.53 207.402 1285 208.674 1285 210V210Z" stroke="#6833E4" stroke-opacity="0.1"/>
<path d="M1292 268L1288 272L1292 268Z" stroke="#6833E4" stroke-opacity="0.1"/>
<path d="M1285 330C1285 331.326 1285.53 332.598 1286.46 333.536C1287.4 334.473 1288.67 335 1290 335C1291.33 335 1292.6 334.473 1293.54 333.536C1294.47 332.598 1295 331.326 1295 330C1295 328.674 1294.47 327.402 1293.54 326.464C1292.6 325.527 1291.33 325 1290 325C1288.67 325 1287.4 325.527 1286.46 326.464C1285.53 327.402 1285 328.674 1285 330V330Z" stroke="#6833E4" stroke-opacity="0.1"/>
<path d="M1285 390C1285 391.326 1285.53 392.598 1286.46 393.536C1287.4 394.473 1288.67 395 1290 395C1291.33 395 1292.6 394.473 1293.54 393.536C1294.47 392.598 1295 391.326 1295 390C1295 388.674 1294.47 387.402 1293.54 386.464C1292.6 385.527 1291.33 385 1290 385C1288.67 385 1287.4 385.527 1286.46 386.464C1285.53 387.402 1285 388.674 1285 390V390Z" stroke="#6833E4" stroke-opacity="0.1"/>
<path d="M1285 450C1285 451.326 1285.53 452.598 1286.46 453.536C1287.4 454.473 1288.67 455 1290 455C1291.33 455 1292.6 454.473 1293.54 453.536C1294.47 452.598 1295 451.326 1295 450C1295 448.674 1294.47 447.402 1293.54 446.464C1292.6 445.527 1291.33 445 1290 445C1288.67 445 1287.4 445.527 1286.46 446.464C1285.53 447.402 1285 448.674 1285 450V450Z" stroke="#6833E4" stroke-opacity="0.1"/>
<path d="M1285 510C1285 511.326 1285.53 512.598 1286.46 513.536C1287.4 514.473 1288.67 515 1290 515C1291.33 515 1292.6 514.473 1293.54 513.536C1294.47 512.598 1295 511.326 1295 510C1295 508.674 1294.47 507.402 1293.54 506.464C1292.6 505.527 1291.33 505 1290 505C1288.67 505 1287.4 505.527 1286.46 506.464C1285.53 507.402 1285 508.674 1285 510V510Z" stroke="#6833E4" stroke-opacity="0.1"/>
<path d="M1292 568L1288 572L1292 568Z" stroke="#6833E4" stroke-opacity="0.1"/>
<path d="M1292 628L1288 632L1292 628Z" stroke="#6833E4" stroke-opacity="0.1"/>
<path d="M1292 688L1288 692L1292 688Z" stroke="#6833E4" stroke-opacity="0.1"/>
<path d="M1356 24L1344 36L1356 24Z" stroke="#6833E4" stroke-opacity="0.1"/>
<path d="M1356 84L1344 96L1356 84Z" stroke="#6833E4" stroke-opacity="0.1"/>
<path d="M1345 150C1345 151.326 1345.53 152.598 1346.46 153.536C1347.4 154.473 1348.67 155 1350 155C1351.33 155 1352.6 154.473 1353.54 153.536C1354.47 152.598 1355 151.326 1355 150C1355 148.674 1354.47 147.402 1353.54 146.464C1352.6 145.527 1351.33 145 1350 145C1348.67 145 1347.4 145.527 1346.46 146.464C1345.53 147.402 1345 148.674 1345 150V150Z" stroke="#6833E4" stroke-opacity="0.1"/>
<path d="M1356 204L1344 216L1356 204Z" stroke="#6833E4" stroke-opacity="0.1"/>
<path d="M1349 270C1349 270.265 1349.11 270.52 1349.29 270.707C1349.48 270.895 1349.73 271 1350 271C1350.27 271 1350.52 270.895 1350.71 270.707C1350.89 270.52 1351 270.265 1351 270C1351 269.735 1350.89 269.48 1350.71 269.293C1350.52 269.105 1350.27 269 1350 269C1349.73 269 1349.48 269.105 1349.29 269.293C1349.11 269.48 1349 269.735 1349 270V270Z" stroke="#6833E4" stroke-opacity="0.1"/>
<path d="M1347 330C1347 330.796 1347.32 331.559 1347.88 332.121C1348.44 332.684 1349.2 333 1350 333C1350.8 333 1351.56 332.684 1352.12 332.121C1352.68 331.559 1353 330.796 1353 330C1353 329.204 1352.68 328.441 1352.12 327.879C1351.56 327.316 1350.8 327 1350 327C1349.2 327 1348.44 327.316 1347.88 327.879C1347.32 328.441 1347 329.204 1347 330V330Z" stroke="#6833E4" stroke-opacity="0.1"/>
<path d="M1352 388L1348 392L1352 388Z" stroke="#6833E4" stroke-opacity="0.1"/>
<path d="M1356 444L1344 456L1356 444Z" stroke="#6833E4" stroke-opacity="0.1"/>
<path d="M1345 510C1345 511.326 1345.53 512.598 1346.46 513.536C1347.4 514.473 1348.67 515 1350 515C1351.33 515 1352.6 514.473 1353.54 513.536C1354.47 512.598 1355 511.326 1355 510C1355 508.674 1354.47 507.402 1353.54 506.464C1352.6 505.527 1351.33 505 1350 505C1348.67 505 1347.4 505.527 1346.46 506.464C1345.53 507.402 1345 508.674 1345 510V510Z" stroke="#6833E4" stroke-opacity="0.1"/>
<path d="M1356 564L1344 576L1356 564Z" stroke="#6833E4" stroke-opacity="0.1"/>
<path d="M1352 628L1348 632L1352 628Z" stroke="#6833E4" stroke-opacity="0.1"/>
<path d="M1345 690C1345 691.326 1345.53 692.598 1346.46 693.536C1347.4 694.473 1348.67 695 1350 695C1351.33 695 1352.6 694.473 1353.54 693.536C1354.47 692.598 1355 691.326 1355 690C1355 688.674 1354.47 687.402 1353.54 686.464C1352.6 685.527 1351.33 685 1350 685C1348.67 685 1347.4 685.527 1346.46 686.464C1345.53 687.402 1345 688.674 1345 690V690Z" stroke="#6833E4" stroke-opacity="0.1"/>
<path d="M1405 30C1405 31.3261 1405.53 32.5979 1406.46 33.5355C1407.4 34.4732 1408.67 35 1410 35C1411.33 35 1412.6 34.4732 1413.54 33.5355C1414.47 32.5979 1415 31.3261 1415 30C1415 28.6739 1414.47 27.4021 1413.54 26.4645C1412.6 25.5268 1411.33 25 1410 25C1408.67 25 1407.4 25.5268 1406.46 26.4645C1405.53 27.4021 1405 28.6739 1405 30V30Z" stroke="#6833E4" stroke-opacity="0.1"/>
<path d="M1405 90C1405 91.3261 1405.53 92.5979 1406.46 93.5355C1407.4 94.4732 1408.67 95 1410 95C1411.33 95 1412.6 94.4732 1413.54 93.5355C1414.47 92.5979 1415 91.3261 1415 90C1415 88.6739 1414.47 87.4021 1413.54 86.4645C1412.6 85.5268 1411.33 85 1410 85C1408.67 85 1407.4 85.5268 1406.46 86.4645C1405.53 87.4021 1405 88.6739 1405 90V90Z" stroke="#6833E4" stroke-opacity="0.1"/>
<path d="M1440 120L1380 180L1440 120Z" stroke="#6833E4" stroke-opacity="0.1" stroke-width="3"/>
<path d="M1416 204L1404 216L1416 204Z" stroke="#6833E4" stroke-opacity="0.1"/>
<path d="M1416 264L1404 276L1416 264Z" stroke="#6833E4" stroke-opacity="0.1"/>
<path d="M1405 330C1405 331.326 1405.53 332.598 1406.46 333.536C1407.4 334.473 1408.67 335 1410 335C1411.33 335 1412.6 334.473 1413.54 333.536C1414.47 332.598 1415 331.326 1415 330C1415 328.674 1414.47 327.402 1413.54 326.464C1412.6 325.527 1411.33 325 1410 325C1408.67 325 1407.4 325.527 1406.46 326.464C1405.53 327.402 1405 328.674 1405 330V330Z" stroke="#6833E4" stroke-opacity="0.1"/>
<path d="M1405 390C1405 391.326 1405.53 392.598 1406.46 393.536C1407.4 394.473 1408.67 395 1410 395C1411.33 395 1412.6 394.473 1413.54 393.536C1414.47 392.598 1415 391.326 1415 390C1415 388.674 1414.47 387.402 1413.54 386.464C1412.6 385.527 1411.33 385 1410 385C1408.67 385 1407.4 385.527 1406.46 386.464C1405.53 387.402 1405 388.674 1405 390V390Z" stroke="#6833E4" stroke-opacity="0.1"/>
<path d="M1416 444L1404 456L1416 444Z" stroke="#6833E4" stroke-opacity="0.1"/>
<path d="M1412 508L1408 512L1412 508Z" stroke="#6833E4" stroke-opacity="0.1"/>
<path d="M1405 570C1405 571.326 1405.53 572.598 1406.46 573.536C1407.4 574.473 1408.67 575 1410 575C1411.33 575 1412.6 574.473 1413.54 573.536C1414.47 572.598 1415 571.326 1415 570C1415 568.674 1414.47 567.402 1413.54 566.464C1412.6 565.527 1411.33 565 1410 565C1408.67 565 1407.4 565.527 1406.46 566.464C1405.53 567.402 1405 568.674 1405 570V570Z" stroke="#6833E4" stroke-opacity="0.1"/>
<path d="M1412 628L1408 632L1412 628Z" stroke="#6833E4" stroke-opacity="0.1"/>
<path d="M1407 690C1407 690.796 1407.32 691.559 1407.88 692.121C1408.44 692.684 1409.2 693 1410 693C1410.8 693 1411.56 692.684 1412.12 692.121C1412.68 691.559 1413 690.796 1413 690C1413 689.204 1412.68 688.441 1412.12 687.879C1411.56 687.316 1410.8 687 1410 687C1409.2 687 1408.44 687.316 1407.88 687.879C1407.32 688.441 1407 689.204 1407 690V690Z" stroke="#6833E4" stroke-opacity="0.1"/>
<path d="M752 748L748 752L752 748Z" stroke="#6833E4" stroke-opacity="0.1"/>
<path d="M749 810C749 810.265 749.105 810.52 749.293 810.707C749.48 810.895 749.735 811 750 811C750.265 811 750.52 810.895 750.707 810.707C750.895 810.52 751 810.265 751 810C751 809.735 750.895 809.48 750.707 809.293C750.52 809.105 750.265 809 750 809C749.735 809 749.48 809.105 749.293 809.293C749.105 809.48 749 809.735 749 810V810Z" stroke="#6833E4" stroke-opacity="0.1"/>
<path d="M756 864L744 876L756 864Z" stroke="#6833E4" stroke-opacity="0.1"/>
<path d="M745 930C745 931.326 745.527 932.598 746.464 933.536C747.402 934.473 748.674 935 750 935C751.326 935 752.598 934.473 753.536 933.536C754.473 932.598 755 931.326 755 930C755 928.674 754.473 927.402 753.536 926.464C752.598 925.527 751.326 925 750 925C748.674 925 747.402 925.527 746.464 926.464C745.527 927.402 745 928.674 745 930V930Z" stroke="#6833E4" stroke-opacity="0.1"/>
<path d="M816 744L804 756L816 744Z" stroke="#6833E4" stroke-opacity="0.1"/>
<path d="M805 810C805 811.326 805.527 812.598 806.464 813.536C807.402 814.473 808.674 815 810 815C811.326 815 812.598 814.473 813.536 813.536C814.473 812.598 815 811.326 815 810C815 808.674 814.473 807.402 813.536 806.464C812.598 805.527 811.326 805 810 805C808.674 805 807.402 805.527 806.464 806.464C805.527 807.402 805 808.674 805 810V810Z" stroke="#6833E4" stroke-opacity="0.1"/>
<path d="M812 868L808 872L812 868Z" stroke="#6833E4" stroke-opacity="0.1"/>
<path d="M816 924L804 936L816 924Z" stroke="#6833E4" stroke-opacity="0.1"/>
<path d="M876 744L864 756L876 744Z" stroke="#6833E4" stroke-opacity="0.1"/>
<path d="M865 810C865 811.326 865.527 812.598 866.464 813.536C867.402 814.473 868.674 815 870 815C871.326 815 872.598 814.473 873.536 813.536C874.473 812.598 875 811.326 875 810C875 808.674 874.473 807.402 873.536 806.464C872.598 805.527 871.326 805 870 805C868.674 805 867.402 805.527 866.464 806.464C865.527 807.402 865 808.674 865 810V810Z" stroke="#6833E4" stroke-opacity="0.1"/>
<path d="M872 868L868 872L872 868Z" stroke="#6833E4" stroke-opacity="0.1"/>
<path d="M865 930C865 931.326 865.527 932.598 866.464 933.536C867.402 934.473 868.674 935 870 935C871.326 935 872.598 934.473 873.536 933.536C874.473 932.598 875 931.326 875 930C875 928.674 874.473 927.402 873.536 926.464C872.598 925.527 871.326 925 870 925C868.674 925 867.402 925.527 866.464 926.464C865.527 927.402 865 928.674 865 930V930Z" stroke="#6833E4" stroke-opacity="0.1"/>
<path d="M936 744L924 756L936 744Z" stroke="#6833E4" stroke-opacity="0.1"/>
<path d="M925 810C925 811.326 925.527 812.598 926.464 813.536C927.402 814.473 928.674 815 930 815C931.326 815 932.598 814.473 933.536 813.536C934.473 812.598 935 811.326 935 810C935 808.674 934.473 807.402 933.536 806.464C932.598 805.527 931.326 805 930 805C928.674 805 927.402 805.527 926.464 806.464C925.527 807.402 925 808.674 925 810V810Z" stroke="#6833E4" stroke-opacity="0.1"/>
<path d="M936 864L924 876L936 864Z" stroke="#6833E4" stroke-opacity="0.1"/>
<path d="M936 924L924 936L936 924Z" stroke="#6833E4" stroke-opacity="0.1"/>
<path d="M985 750C985 751.326 985.527 752.598 986.464 753.536C987.402 754.473 988.674 755 990 755C991.326 755 992.598 754.473 993.536 753.536C994.473 752.598 995 751.326 995 750C995 748.674 994.473 747.402 993.536 746.464C992.598 745.527 991.326 745 990 745C988.674 745 987.402 745.527 986.464 746.464C985.527 747.402 985 748.674 985 750V750Z" stroke="#6833E4" stroke-opacity="0.1"/>
<path d="M985 810C985 811.326 985.527 812.598 986.464 813.536C987.402 814.473 988.674 815 990 815C991.326 815 992.598 814.473 993.536 813.536C994.473 812.598 995 811.326 995 810C995 808.674 994.473 807.402 993.536 806.464C992.598 805.527 991.326 805 990 805C988.674 805 987.402 805.527 986.464 806.464C985.527 807.402 985 808.674 985 810V810Z" stroke="#6833E4" stroke-opacity="0.1"/>
<path d="M996 864L984 876L996 864Z" stroke="#6833E4" stroke-opacity="0.1"/>
<path d="M987 930C987 930.796 987.316 931.559 987.879 932.121C988.441 932.684 989.204 933 990 933C990.796 933 991.559 932.684 992.121 932.121C992.684 931.559 993 930.796 993 930C993 929.204 992.684 928.441 992.121 927.879C991.559 927.316 990.796 927 990 927C989.204 927 988.441 927.316 987.879 927.879C987.316 928.441 987 929.204 987 930V930Z" stroke="#6833E4" stroke-opacity="0.1"/>
<path d="M1056 744L1044 756L1056 744Z" stroke="#6833E4" stroke-opacity="0.1"/>
<path d="M1047 810C1047 810.796 1047.32 811.559 1047.88 812.121C1048.44 812.684 1049.2 813 1050 813C1050.8 813 1051.56 812.684 1052.12 812.121C1052.68 811.559 1053 810.796 1053 810C1053 809.204 1052.68 808.441 1052.12 807.879C1051.56 807.316 1050.8 807 1050 807C1049.2 807 1048.44 807.316 1047.88 807.879C1047.32 808.441 1047 809.204 1047 810V810Z" stroke="#6833E4" stroke-opacity="0.1"/>
<path d="M1045 870C1045 871.326 1045.53 872.598 1046.46 873.536C1047.4 874.473 1048.67 875 1050 875C1051.33 875 1052.6 874.473 1053.54 873.536C1054.47 872.598 1055 871.326 1055 870C1055 868.674 1054.47 867.402 1053.54 866.464C1052.6 865.527 1051.33 865 1050 865C1048.67 865 1047.4 865.527 1046.46 866.464C1045.53 867.402 1045 868.674 1045 870V870Z" stroke="#6833E4" stroke-opacity="0.1"/>
<path d="M1045 930C1045 931.326 1045.53 932.598 1046.46 933.536C1047.4 934.473 1048.67 935 1050 935C1051.33 935 1052.6 934.473 1053.54 933.536C1054.47 932.598 1055 931.326 1055 930C1055 928.674 1054.47 927.402 1053.54 926.464C1052.6 925.527 1051.33 925 1050 925C1048.67 925 1047.4 925.527 1046.46 926.464C1045.53 927.402 1045 928.674 1045 930V930Z" stroke="#6833E4" stroke-opacity="0.1"/>
<path d="M1112 748L1108 752L1112 748Z" stroke="#6833E4" stroke-opacity="0.1"/>
<path d="M1140 780L1080 840L1140 780Z" stroke="#6833E4" stroke-opacity="0.1" stroke-width="3"/>
<path d="M1107 870C1107 870.796 1107.32 871.559 1107.88 872.121C1108.44 872.684 1109.2 873 1110 873C1110.8 873 1111.56 872.684 1112.12 872.121C1112.68 871.559 1113 870.796 1113 870C1113 869.204 1112.68 868.441 1112.12 867.879C1111.56 867.316 1110.8 867 1110 867C1109.2 867 1108.44 867.316 1107.88 867.879C1107.32 868.441 1107 869.204 1107 870V870Z" stroke="#6833E4" stroke-opacity="0.1"/>
<path d="M1112 928L1108 932L1112 928Z" stroke="#6833E4" stroke-opacity="0.1"/>
<path d="M1176 744L1164 756L1176 744Z" stroke="#6833E4" stroke-opacity="0.1"/>
<path d="M1169 810C1169 810.265 1169.11 810.52 1169.29 810.707C1169.48 810.895 1169.73 811 1170 811C1170.27 811 1170.52 810.895 1170.71 810.707C1170.89 810.52 1171 810.265 1171 810C1171 809.735 1170.89 809.48 1170.71 809.293C1170.52 809.105 1170.27 809 1170 809C1169.73 809 1169.48 809.105 1169.29 809.293C1169.11 809.48 1169 809.735 1169 810V810Z" stroke="#6833E4" stroke-opacity="0.1"/>
<path d="M1167 870C1167 870.796 1167.32 871.559 1167.88 872.121C1168.44 872.684 1169.2 873 1170 873C1170.8 873 1171.56 872.684 1172.12 872.121C1172.68 871.559 1173 870.796 1173 870C1173 869.204 1172.68 868.441 1172.12 867.879C1171.56 867.316 1170.8 867 1170 867C1169.2 867 1168.44 867.316 1167.88 867.879C1167.32 868.441 1167 869.204 1167 870V870Z" stroke="#6833E4" stroke-opacity="0.1"/>
<path d="M1169 930C1169 930.265 1169.11 930.52 1169.29 930.707C1169.48 930.895 1169.73 931 1170 931C1170.27 931 1170.52 930.895 1170.71 930.707C1170.89 930.52 1171 930.265 1171 930C1171 929.735 1170.89 929.48 1170.71 929.293C1170.52 929.105 1170.27 929 1170 929C1169.73 929 1169.48 929.105 1169.29 929.293C1169.11 929.48 1169 929.735 1169 930V930Z" stroke="#6833E4" stroke-opacity="0.1"/>
<path d="M1225 750C1225 751.326 1225.53 752.598 1226.46 753.536C1227.4 754.473 1228.67 755 1230 755C1231.33 755 1232.6 754.473 1233.54 753.536C1234.47 752.598 1235 751.326 1235 750C1235 748.674 1234.47 747.402 1233.54 746.464C1232.6 745.527 1231.33 745 1230 745C1228.67 745 1227.4 745.527 1226.46 746.464C1225.53 747.402 1225 748.674 1225 750V750Z" stroke="#6833E4" stroke-opacity="0.1"/>
<path d="M1227 810C1227 810.796 1227.32 811.559 1227.88 812.121C1228.44 812.684 1229.2 813 1230 813C1230.8 813 1231.56 812.684 1232.12 812.121C1232.68 811.559 1233 810.796 1233 810C1233 809.204 1232.68 808.441 1232.12 807.879C1231.56 807.316 1230.8 807 1230 807C1229.2 807 1228.44 807.316 1227.88 807.879C1227.32 808.441 1227 809.204 1227 810V810Z" stroke="#6833E4" stroke-opacity="0.1"/>
<path d="M1225 870C1225 871.326 1225.53 872.598 1226.46 873.536C1227.4 874.473 1228.67 875 1230 875C1231.33 875 1232.6 874.473 1233.54 873.536C1234.47 872.598 1235 871.326 1235 870C1235 868.674 1234.47 867.402 1233.54 866.464C1232.6 865.527 1231.33 865 1230 865C1228.67 865 1227.4 865.527 1226.46 866.464C1225.53 867.402 1225 868.674 1225 870V870Z" stroke="#6833E4" stroke-opacity="0.1"/>
<path d="M1232 928L1228 932L1232 928Z" stroke="#6833E4" stroke-opacity="0.1"/>
<path d="M1285 750C1285 751.326 1285.53 752.598 1286.46 753.536C1287.4 754.473 1288.67 755 1290 755C1291.33 755 1292.6 754.473 1293.54 753.536C1294.47 752.598 1295 751.326 1295 750C1295 748.674 1294.47 747.402 1293.54 746.464C1292.6 745.527 1291.33 745 1290 745C1288.67 745 1287.4 745.527 1286.46 746.464C1285.53 747.402 1285 748.674 1285 750V750Z" stroke="#6833E4" stroke-opacity="0.1"/>
<path d="M1285 810C1285 811.326 1285.53 812.598 1286.46 813.536C1287.4 814.473 1288.67 815 1290 815C1291.33 815 1292.6 814.473 1293.54 813.536C1294.47 812.598 1295 811.326 1295 810C1295 808.674 1294.47 807.402 1293.54 806.464C1292.6 805.527 1291.33 805 1290 805C1288.67 805 1287.4 805.527 1286.46 806.464C1285.53 807.402 1285 808.674 1285 810V810Z" stroke="#6833E4" stroke-opacity="0.1"/>
<path d="M1296 864L1284 876L1296 864Z" stroke="#6833E4" stroke-opacity="0.1"/>
<path d="M1285 930C1285 931.326 1285.53 932.598 1286.46 933.536C1287.4 934.473 1288.67 935 1290 935C1291.33 935 1292.6 934.473 1293.54 933.536C1294.47 932.598 1295 931.326 1295 930C1295 928.674 1294.47 927.402 1293.54 926.464C1292.6 925.527 1291.33 925 1290 925C1288.67 925 1287.4 925.527 1286.46 926.464C1285.53 927.402 1285 928.674 1285 930V930Z" stroke="#6833E4" stroke-opacity="0.1"/>
<path d="M1356 744L1344 756L1356 744Z" stroke="#6833E4" stroke-opacity="0.1"/>
<path d="M1356 804L1344 816L1356 804Z" stroke="#6833E4" stroke-opacity="0.1"/>
<path d="M1345 870C1345 871.326 1345.53 872.598 1346.46 873.536C1347.4 874.473 1348.67 875 1350 875C1351.33 875 1352.6 874.473 1353.54 873.536C1354.47 872.598 1355 871.326 1355 870C1355 868.674 1354.47 867.402 1353.54 866.464C1352.6 865.527 1351.33 865 1350 865C1348.67 865 1347.4 865.527 1346.46 866.464C1345.53 867.402 1345 868.674 1345 870V870Z" stroke="#6833E4" stroke-opacity="0.1"/>
<path d="M1356 924L1344 936L1356 924Z" stroke="#6833E4" stroke-opacity="0.1"/>
<path d="M1405 750C1405 751.326 1405.53 752.598 1406.46 753.536C1407.4 754.473 1408.67 755 1410 755C1411.33 755 1412.6 754.473 1413.54 753.536C1414.47 752.598 1415 751.326 1415 750C1415 748.674 1414.47 747.402 1413.54 746.464C1412.6 745.527 1411.33 745 1410 745C1408.67 745 1407.4 745.527 1406.46 746.464C1405.53 747.402 1405 748.674 1405 750V750Z" stroke="#6833E4" stroke-opacity="0.1"/>
<path d="M1405 810C1405 811.326 1405.53 812.598 1406.46 813.536C1407.4 814.473 1408.67 815 1410 815C1411.33 815 1412.6 814.473 1413.54 813.536C1414.47 812.598 1415 811.326 1415 810C1415 808.674 1414.47 807.402 1413.54 806.464C1412.6 805.527 1411.33 805 1410 805C1408.67 805 1407.4 805.527 1406.46 806.464C1405.53 807.402 1405 808.674 1405 810V810Z" stroke="#6833E4" stroke-opacity="0.1"/>
<path d="M1440 840L1380 900L1440 840Z" stroke="#6833E4" stroke-opacity="0.1" stroke-width="3"/>
<path d="M1416 924L1404 936L1416 924Z" stroke="#6833E4" stroke-opacity="0.1"/>
<path d="M1472 28L1468 32L1472 28Z" stroke="#6833E4" stroke-opacity="0.1"/>
<path d="M1469 90C1469 90.2652 1469.11 90.5196 1469.29 90.7071C1469.48 90.8946 1469.73 91 1470 91C1470.27 91 1470.52 90.8946 1470.71 90.7071C1470.89 90.5196 1471 90.2652 1471 90C1471 89.7348 1470.89 89.4804 1470.71 89.2929C1470.52 89.1054 1470.27 89 1470 89C1469.73 89 1469.48 89.1054 1469.29 89.2929C1469.11 89.4804 1469 89.7348 1469 90V90Z" stroke="#6833E4" stroke-opacity="0.1"/>
<path d="M1476 144L1464 156L1476 144Z" stroke="#6833E4" stroke-opacity="0.1"/>
<path d="M1465 210C1465 211.326 1465.53 212.598 1466.46 213.536C1467.4 214.473 1468.67 215 1470 215C1471.33 215 1472.6 214.473 1473.54 213.536C1474.47 212.598 1475 211.326 1475 210C1475 208.674 1474.47 207.402 1473.54 206.464C1472.6 205.527 1471.33 205 1470 205C1468.67 205 1467.4 205.527 1466.46 206.464C1465.53 207.402 1465 208.674 1465 210V210Z" stroke="#6833E4" stroke-opacity="0.1"/>
<path d="M1472 268L1468 272L1472 268Z" stroke="#6833E4" stroke-opacity="0.1"/>
<path d="M1472 328L1468 332L1472 328Z" stroke="#6833E4" stroke-opacity="0.1"/>
<path d="M1500 360L1440 420L1500 360Z" stroke="#6833E4" stroke-opacity="0.1" stroke-width="3"/>
<path d="M1500 420L1440 480L1500 420Z" stroke="#6833E4" stroke-opacity="0.1" stroke-width="3"/>
<path d="M1476 504L1464 516L1476 504Z" stroke="#6833E4" stroke-opacity="0.1"/>
<path d="M1467 570C1467 570.796 1467.32 571.559 1467.88 572.121C1468.44 572.684 1469.2 573 1470 573C1470.8 573 1471.56 572.684 1472.12 572.121C1472.68 571.559 1473 570.796 1473 570C1473 569.204 1472.68 568.441 1472.12 567.879C1471.56 567.316 1470.8 567 1470 567C1469.2 567 1468.44 567.316 1467.88 567.879C1467.32 568.441 1467 569.204 1467 570V570Z" stroke="#6833E4" stroke-opacity="0.1"/>
<path d="M1476 624L1464 636L1476 624Z" stroke="#6833E4" stroke-opacity="0.1"/>
<path d="M1465 690C1465 691.326 1465.53 692.598 1466.46 693.536C1467.4 694.473 1468.67 695 1470 695C1471.33 695 1472.6 694.473 1473.54 693.536C1474.47 692.598 1475 691.326 1475 690C1475 688.674 1474.47 687.402 1473.54 686.464C1472.6 685.527 1471.33 685 1470 685C1468.67 685 1467.4 685.527 1466.46 686.464C1465.53 687.402 1465 688.674 1465 690V690Z" stroke="#6833E4" stroke-opacity="0.1"/>
<path d="M1536 24L1524 36L1536 24Z" stroke="#6833E4" stroke-opacity="0.1"/>
<path d="M1525 90C1525 91.3261 1525.53 92.5979 1526.46 93.5355C1527.4 94.4732 1528.67 95 1530 95C1531.33 95 1532.6 94.4732 1533.54 93.5355C1534.47 92.5979 1535 91.3261 1535 90C1535 88.6739 1534.47 87.4021 1533.54 86.4645C1532.6 85.5268 1531.33 85 1530 85C1528.67 85 1527.4 85.5268 1526.46 86.4645C1525.53 87.4021 1525 88.6739 1525 90V90Z" stroke="#6833E4" stroke-opacity="0.1"/>
<path d="M1532 148L1528 152L1532 148Z" stroke="#6833E4" stroke-opacity="0.1"/>
<path d="M1536 204L1524 216L1536 204Z" stroke="#6833E4" stroke-opacity="0.1"/>
<path d="M1532 268L1528 272L1532 268Z" stroke="#6833E4" stroke-opacity="0.1"/>
<path d="M1525 330C1525 331.326 1525.53 332.598 1526.46 333.536C1527.4 334.473 1528.67 335 1530 335C1531.33 335 1532.6 334.473 1533.54 333.536C1534.47 332.598 1535 331.326 1535 330C1535 328.674 1534.47 327.402 1533.54 326.464C1532.6 325.527 1531.33 325 1530 325C1528.67 325 1527.4 325.527 1526.46 326.464C1525.53 327.402 1525 328.674 1525 330V330Z" stroke="#6833E4" stroke-opacity="0.1"/>
<path d="M1525 390C1525 391.326 1525.53 392.598 1526.46 393.536C1527.4 394.473 1528.67 395 1530 395C1531.33 395 1532.6 394.473 1533.54 393.536C1534.47 392.598 1535 391.326 1535 390C1535 388.674 1534.47 387.402 1533.54 386.464C1532.6 385.527 1531.33 385 1530 385C1528.67 385 1527.4 385.527 1526.46 386.464C1525.53 387.402 1525 388.674 1525 390V390Z" stroke="#6833E4" stroke-opacity="0.1"/>
<path d="M1536 444L1524 456L1536 444Z" stroke="#6833E4" stroke-opacity="0.1"/>
<path d="M1527 510C1527 510.796 1527.32 511.559 1527.88 512.121C1528.44 512.684 1529.2 513 1530 513C1530.8 513 1531.56 512.684 1532.12 512.121C1532.68 511.559 1533 510.796 1533 510C1533 509.204 1532.68 508.441 1532.12 507.879C1531.56 507.316 1530.8 507 1530 507C1529.2 507 1528.44 507.316 1527.88 507.879C1527.32 508.441 1527 509.204 1527 510V510Z" stroke="#6833E4" stroke-opacity="0.1"/>
<path d="M1536 564L1524 576L1536 564Z" stroke="#6833E4" stroke-opacity="0.1"/>
<path d="M1536 624L1524 636L1536 624Z" stroke="#6833E4" stroke-opacity="0.1"/>
<path d="M1560 660L1500 720L1560 660Z" stroke="#6833E4" stroke-opacity="0.1" stroke-width="3"/>
<path d="M1596 24L1584 36L1596 24Z" stroke="#6833E4" stroke-opacity="0.1"/>
<path d="M1585 90C1585 91.3261 1585.53 92.5979 1586.46 93.5355C1587.4 94.4732 1588.67 95 1590 95C1591.33 95 1592.6 94.4732 1593.54 93.5355C1594.47 92.5979 1595 91.3261 1595 90C1595 88.6739 1594.47 87.4021 1593.54 86.4645C1592.6 85.5268 1591.33 85 1590 85C1588.67 85 1587.4 85.5268 1586.46 86.4645C1585.53 87.4021 1585 88.6739 1585 90V90Z" stroke="#6833E4" stroke-opacity="0.1"/>
<path d="M1592 148L1588 152L1592 148Z" stroke="#6833E4" stroke-opacity="0.1"/>
<path d="M1585 210C1585 211.326 1585.53 212.598 1586.46 213.536C1587.4 214.473 1588.67 215 1590 215C1591.33 215 1592.6 214.473 1593.54 213.536C1594.47 212.598 1595 211.326 1595 210C1595 208.674 1594.47 207.402 1593.54 206.464C1592.6 205.527 1591.33 205 1590 205C1588.67 205 1587.4 205.527 1586.46 206.464C1585.53 207.402 1585 208.674 1585 210V210Z" stroke="#6833E4" stroke-opacity="0.1"/>
<path d="M1585 270C1585 271.326 1585.53 272.598 1586.46 273.536C1587.4 274.473 1588.67 275 1590 275C1591.33 275 1592.6 274.473 1593.54 273.536C1594.47 272.598 1595 271.326 1595 270C1595 268.674 1594.47 267.402 1593.54 266.464C1592.6 265.527 1591.33 265 1590 265C1588.67 265 1587.4 265.527 1586.46 266.464C1585.53 267.402 1585 268.674 1585 270V270Z" stroke="#6833E4" stroke-opacity="0.1"/>
<path d="M1592 328L1588 332L1592 328Z" stroke="#6833E4" stroke-opacity="0.1"/>
<path d="M1585 390C1585 391.326 1585.53 392.598 1586.46 393.536C1587.4 394.473 1588.67 395 1590 395C1591.33 395 1592.6 394.473 1593.54 393.536C1594.47 392.598 1595 391.326 1595 390C1595 388.674 1594.47 387.402 1593.54 386.464C1592.6 385.527 1591.33 385 1590 385C1588.67 385 1587.4 385.527 1586.46 386.464C1585.53 387.402 1585 388.674 1585 390V390Z" stroke="#6833E4" stroke-opacity="0.1"/>
<path d="M1596 444L1584 456L1596 444Z" stroke="#6833E4" stroke-opacity="0.1"/>
<path d="M1585 510C1585 511.326 1585.53 512.598 1586.46 513.536C1587.4 514.473 1588.67 515 1590 515C1591.33 515 1592.6 514.473 1593.54 513.536C1594.47 512.598 1595 511.326 1595 510C1595 508.674 1594.47 507.402 1593.54 506.464C1592.6 505.527 1591.33 505 1590 505C1588.67 505 1587.4 505.527 1586.46 506.464C1585.53 507.402 1585 508.674 1585 510V510Z" stroke="#6833E4" stroke-opacity="0.1"/>
<path d="M1596 564L1584 576L1596 564Z" stroke="#6833E4" stroke-opacity="0.1"/>
<path d="M1592 628L1588 632L1592 628Z" stroke="#6833E4" stroke-opacity="0.1"/>
<path d="M1589 690C1589 690.265 1589.11 690.52 1589.29 690.707C1589.48 690.895 1589.73 691 1590 691C1590.27 691 1590.52 690.895 1590.71 690.707C1590.89 690.52 1591 690.265 1591 690C1591 689.735 1590.89 689.48 1590.71 689.293C1590.52 689.105 1590.27 689 1590 689C1589.73 689 1589.48 689.105 1589.29 689.293C1589.11 689.48 1589 689.735 1589 690V690Z" stroke="#6833E4" stroke-opacity="0.1"/>
<path d="M1472 748L1468 752L1472 748Z" stroke="#6833E4" stroke-opacity="0.1"/>
<path d="M1469 810C1469 810.265 1469.11 810.52 1469.29 810.707C1469.48 810.895 1469.73 811 1470 811C1470.27 811 1470.52 810.895 1470.71 810.707C1470.89 810.52 1471 810.265 1471 810C1471 809.735 1470.89 809.48 1470.71 809.293C1470.52 809.105 1470.27 809 1470 809C1469.73 809 1469.48 809.105 1469.29 809.293C1469.11 809.48 1469 809.735 1469 810V810Z" stroke="#6833E4" stroke-opacity="0.1"/>
<path d="M1476 864L1464 876L1476 864Z" stroke="#6833E4" stroke-opacity="0.1"/>
<path d="M1465 930C1465 931.326 1465.53 932.598 1466.46 933.536C1467.4 934.473 1468.67 935 1470 935C1471.33 935 1472.6 934.473 1473.54 933.536C1474.47 932.598 1475 931.326 1475 930C1475 928.674 1474.47 927.402 1473.54 926.464C1472.6 925.527 1471.33 925 1470 925C1468.67 925 1467.4 925.527 1466.46 926.464C1465.53 927.402 1465 928.674 1465 930V930Z" stroke="#6833E4" stroke-opacity="0.1"/>
<path d="M1536 744L1524 756L1536 744Z" stroke="#6833E4" stroke-opacity="0.1"/>
<path d="M1525 810C1525 811.326 1525.53 812.598 1526.46 813.536C1527.4 814.473 1528.67 815 1530 815C1531.33 815 1532.6 814.473 1533.54 813.536C1534.47 812.598 1535 811.326 1535 810C1535 808.674 1534.47 807.402 1533.54 806.464C1532.6 805.527 1531.33 805 1530 805C1528.67 805 1527.4 805.527 1526.46 806.464C1525.53 807.402 1525 808.674 1525 810V810Z" stroke="#6833E4" stroke-opacity="0.1"/>
<path d="M1532 868L1528 872L1532 868Z" stroke="#6833E4" stroke-opacity="0.1"/>
<path d="M1536 924L1524 936L1536 924Z" stroke="#6833E4" stroke-opacity="0.1"/>
<path d="M1596 744L1584 756L1596 744Z" stroke="#6833E4" stroke-opacity="0.1"/>
<path d="M1585 810C1585 811.326 1585.53 812.598 1586.46 813.536C1587.4 814.473 1588.67 815 1590 815C1591.33 815 1592.6 814.473 1593.54 813.536C1594.47 812.598 1595 811.326 1595 810C1595 808.674 1594.47 807.402 1593.54 806.464C1592.6 805.527 1591.33 805 1590 805C1588.67 805 1587.4 805.527 1586.46 806.464C1585.53 807.402 1585 808.674 1585 810V810Z" stroke="#6833E4" stroke-opacity="0.1"/>
<path d="M1592 868L1588 872L1592 868Z" stroke="#6833E4" stroke-opacity="0.1"/>
<path d="M1585 930C1585 931.326 1585.53 932.598 1586.46 933.536C1587.4 934.473 1588.67 935 1590 935C1591.33 935 1592.6 934.473 1593.54 933.536C1594.47 932.598 1595 931.326 1595 930C1595 928.674 1594.47 927.402 1593.54 926.464C1592.6 925.527 1591.33 925 1590 925C1588.67 925 1587.4 925.527 1586.46 926.464C1585.53 927.402 1585 928.674 1585 930V930Z" stroke="#6833E4" stroke-opacity="0.1"/>
</g>
</svg>
