<svg width="1440" height="377" viewBox="0 0 1440 377" fill="none" xmlns="http://www.w3.org/2000/svg">
<path opacity="0.2" clip-rule="evenodd" d="M1489.96 36.2443C1426.41 13.2021 1261.44 -22.4433 1109.74 19.2982C1062.3 32.3514 1043.9 51.3642 1039.01 72.7801C1036.58 83.4553 1037.51 94.6679 1039.81 105.93C1041.46 114.06 1043.83 122.251 1046.16 130.296L1046.16 130.3L1046.17 130.316C1047.06 133.399 1047.94 136.461 1048.78 139.49C1054.85 161.456 1058.34 181.667 1043.86 196.823C1036.6 204.42 1024.77 210.801 1006.35 215.467C987.924 220.132 962.94 223.071 929.404 223.818C828.414 226.067 759.188 206.409 700.569 189.763C681.328 184.3 663.23 179.161 645.527 175.227C609.71 167.269 575.526 164.258 536.835 173.543C498.151 182.826 455.004 204.388 401.234 245.503C347.569 286.538 302.732 298.764 262.678 295.027C222.601 291.289 187.228 271.563 152.496 248.514C144.104 242.944 135.747 237.179 127.371 231.401L127.368 231.399C101.113 213.286 74.6665 195.041 46.3249 182.269C8.90443 165.405 -31.8698 158.052 -80 173.038L-79.7027 173.993C-31.8552 159.095 8.66436 166.394 45.9141 183.18C74.1651 195.912 100.506 214.084 126.744 232.184L126.745 232.185C135.135 237.973 143.515 243.754 151.943 249.347C186.695 272.41 222.244 292.26 262.586 296.023C302.95 299.789 348.031 287.444 401.841 246.298C455.545 205.233 498.566 183.754 537.068 174.515C575.562 165.278 609.581 168.265 645.31 176.203C662.944 180.121 680.998 185.248 700.211 190.704C758.848 207.356 828.27 227.07 929.426 224.818C963 224.07 988.067 221.127 1006.59 216.436C1025.11 211.746 1037.14 205.299 1044.58 197.514C1059.5 181.904 1055.8 161.128 1049.74 139.224C1048.9 136.17 1048.01 133.095 1047.12 130.004L1047.11 129.984C1044.79 121.951 1042.43 113.82 1040.79 105.731C1038.51 94.5319 1037.6 83.4795 1039.99 73.0026C1044.75 52.1143 1062.72 33.2744 1110.01 20.2624C1261.44 -21.405 1426.19 14.1835 1489.62 37.1844L1489.96 36.2443ZM1129.74 45.8616C1281.44 4.12012 1446.41 39.7655 1509.95 62.8077L1509.61 63.7478C1446.18 40.7469 1281.43 5.15833 1130 46.8257C1082.71 59.8378 1064.75 78.6777 1059.98 99.566C1057.59 110.043 1058.5 121.095 1060.78 132.294C1062.43 140.383 1064.78 148.514 1067.11 156.547L1067.11 156.568C1068.01 159.658 1068.9 162.734 1069.74 165.787C1075.79 187.691 1079.49 208.467 1064.57 224.077C1057.13 231.863 1045.11 238.31 1026.59 242.999C1008.06 247.69 982.996 250.634 949.422 251.381C848.266 253.633 778.844 233.919 720.206 217.268C700.994 211.812 682.939 206.685 665.305 202.767C629.577 194.828 595.557 191.842 557.063 201.079C518.561 210.318 475.541 231.796 421.836 272.861C368.026 314.007 322.946 326.352 282.581 322.586C242.24 318.823 206.691 298.973 171.939 275.91C163.511 270.317 155.132 264.537 146.742 258.749L146.74 258.747C120.502 240.647 94.1606 222.475 65.9095 209.744C28.6598 192.957 -11.8597 185.658 -59.7073 200.556L-60.0046 199.602C-11.8743 184.616 28.8999 191.968 66.3204 208.832C94.6619 221.604 121.109 239.849 147.364 257.962L147.37 257.966C155.745 263.744 164.101 269.508 172.492 275.077C207.224 298.127 242.596 317.852 282.674 321.591C322.728 325.327 367.564 313.101 421.229 272.067C475 230.951 518.147 209.389 556.83 200.106C595.522 190.822 629.705 193.833 665.522 201.791C683.226 205.724 701.323 210.863 720.564 216.327C779.183 232.972 848.409 252.63 949.4 250.381C982.935 249.635 1007.92 246.695 1026.34 242.03C1044.77 237.364 1056.59 230.983 1063.85 223.386C1078.33 208.231 1074.85 188.02 1068.78 166.053C1067.95 163.056 1067.07 160.027 1066.19 156.977L1066.16 156.879L1066.16 156.863L1066.16 156.86C1063.83 148.814 1061.46 140.624 1059.8 132.493C1057.51 121.231 1056.57 110.019 1059.01 99.3435C1063.89 77.9276 1082.3 58.9148 1129.74 45.8616ZM1529.95 89.371C1466.4 66.3288 1301.43 30.6834 1149.73 72.4248C1102.29 85.478 1083.89 104.491 1079 125.907C1076.57 136.582 1077.51 147.795 1079.8 159.057C1081.45 167.187 1083.82 175.378 1086.15 183.423L1086.15 183.426L1086.16 183.442L1086.18 183.54C1087.07 186.59 1087.94 189.619 1088.77 192.617C1094.84 214.583 1098.33 234.794 1083.85 249.949C1076.59 257.547 1064.76 263.928 1046.34 268.593C1027.91 273.258 1002.93 276.198 969.395 276.945C868.405 279.193 799.178 259.536 740.56 242.89C721.319 237.426 703.221 232.287 685.518 228.354C649.701 220.396 615.517 217.385 576.825 226.67C538.142 235.952 494.995 257.515 441.224 298.63C387.56 339.664 342.723 351.891 302.669 348.154C262.591 344.415 227.219 324.69 192.487 301.64C184.094 296.07 175.736 290.304 167.359 284.525L167.359 284.525C141.104 266.412 114.657 248.167 86.3157 235.395C48.8952 218.532 8.12103 211.179 -40.0092 226.165L-39.7119 227.12C8.13563 212.222 48.6552 219.52 85.9049 236.307C114.156 249.038 140.497 267.21 166.735 285.311C175.126 291.099 183.506 296.88 191.934 302.474C226.686 325.536 262.235 345.386 302.576 349.15C342.941 352.915 388.021 340.57 441.832 299.424C495.536 258.36 538.557 236.881 577.059 227.642C615.552 218.405 649.572 221.392 685.301 229.33C702.935 233.248 720.989 238.375 740.201 243.831C798.839 260.483 868.261 280.197 969.417 277.944C1002.99 277.197 1028.06 274.253 1046.58 269.563C1065.11 264.873 1077.13 258.426 1084.57 250.64C1099.49 235.03 1095.79 214.255 1089.74 192.35C1088.89 189.301 1088 186.23 1087.11 183.144L1087.11 183.129L1087.1 183.11C1084.78 175.078 1082.43 166.946 1080.78 158.857C1078.5 147.658 1077.59 136.606 1079.98 126.129C1084.74 105.241 1102.71 86.401 1150 73.389C1301.43 31.7216 1466.18 67.3102 1529.61 90.3111L1529.95 89.371ZM1549.94 115.934C1486.4 92.8922 1321.43 57.2468 1169.73 98.9882C1122.29 112.041 1103.89 131.054 1099 152.47C1096.56 163.145 1097.5 174.358 1099.79 185.62C1101.45 193.75 1103.82 201.941 1106.15 209.986L1106.15 209.99L1106.15 210.006L1106.18 210.104C1107.06 213.154 1107.94 216.183 1108.77 219.18C1114.84 241.146 1118.32 261.357 1103.84 276.513C1096.58 284.11 1084.76 290.491 1066.33 295.157C1047.91 299.822 1022.93 302.761 989.39 303.508C888.4 305.757 819.174 286.099 760.555 269.453C741.314 263.99 723.216 258.851 705.513 254.917C669.696 246.959 635.512 243.948 596.821 253.233C558.137 262.516 514.99 284.078 461.22 325.193C407.555 366.228 362.719 378.454 322.665 374.717C282.587 370.979 247.215 351.253 212.483 328.204C204.089 322.634 195.731 316.868 187.354 311.089C161.099 292.976 134.653 274.731 106.311 261.959C68.8906 245.095 28.1164 237.742 -20.0139 252.728L-19.7166 253.683C28.131 238.785 68.6505 246.084 105.9 262.87C134.151 275.602 160.493 293.774 186.73 311.874L186.735 311.877C195.124 317.665 203.503 323.445 211.93 329.037C246.682 352.1 282.231 371.95 322.572 375.713C362.936 379.479 408.017 367.134 461.827 325.988C515.532 284.923 558.552 263.444 597.054 254.205C635.548 244.968 669.567 247.955 705.296 255.893C722.93 259.811 740.985 264.938 760.197 270.394C818.835 287.046 888.256 306.76 989.412 304.508C1022.99 303.76 1048.05 300.817 1066.58 296.126C1085.1 291.436 1097.12 284.99 1104.56 277.204C1119.48 261.594 1115.78 240.818 1109.73 218.914C1108.89 215.86 1108 212.785 1107.1 209.694L1107.1 209.674C1104.77 201.641 1102.42 193.51 1100.77 185.421C1098.49 174.222 1097.58 163.169 1099.97 152.693C1104.74 131.804 1122.7 112.964 1169.99 99.9524C1321.42 58.285 1486.17 93.8735 1549.6 116.874L1549.94 115.934Z" fill="url(#paint0_linear_992_16794)"/>
<defs>
<linearGradient id="paint0_linear_992_16794" x1="107.441" y1="280.845" x2="1535.99" y2="280.845" gradientUnits="userSpaceOnUse">
<stop offset="0.0695291" stop-color="#7FC1F0"/>
<stop offset="0.511553" stop-color="#7FC1F0" stop-opacity="0"/>
<stop offset="0.851637" stop-color="#7FC1F0"/>
</linearGradient>
</defs>
</svg>